<?xml version="1.0" encoding="iso-8859-1"?>
<!-- Generator: Adobe Illustrator 18.0.0, SVG Export Plug-In . SVG Version: 6.00 Build 0)  -->
<!DOCTYPE svg PUBLIC "-//W3C//DTD SVG 1.1//EN" "http://www.w3.org/Graphics/SVG/1.1/DTD/svg11.dtd">
<svg version="1.1" id="Capa_1" xmlns="http://www.w3.org/2000/svg" xmlns:xlink="http://www.w3.org/1999/xlink" x="0px" y="0px"
	 viewBox="0 0 494.545 494.545" style="enable-background:new 0 0 494.545 494.545;" xml:space="preserve">
<g id="XMLID_80_">
	<path id="XMLID_109_" d="M475.216,376.291c-23.089-117.387-16.386-82.677-31.698-163.988c-4.264-22.585-25.97-37.402-48.615-33.2
		c-19.592,3.691-33.318,20.564-33.865,39.714l-31.75,32.21l-48.154-15.294c-1.688-0.537-3.358-0.419-5.047-0.547
		c0.016-1.73,0-3.451-0.068-5.199c6.154-3.011,14.512-10.096,22.424-19.543c12.447-14.868,14.748-33.446,14.748-33.446
		s-17.904,5.499-30.354,20.368c-3.648,4.356-6.715,8.689-9.24,12.779c-3.068-16.063-7.912-29.098-8.305-30.104
		c-1.107-2.891-4.365-4.307-7.211-3.248c-2.9,1.092-4.351,4.33-3.26,7.221c0.139,0.351,11.053,29.576,10.063,52.92
		c-5.457,2.559-9.908,7.162-11.887,13.359c-3.732,11.785,2.78,24.376,14.563,28.119l61.251,19.457
		c2.234,0.707,4.519,1.058,6.786,1.058c5.9,0,11.682-2.337,15.943-6.677l1.008-1.022l-10.436,65.054l-33.492,17.697
		c-11.287,5.961-17.051,18.843-13.983,31.213c3.088,12.381,14.188,21.078,26.943,21.078h137.163
		c15.331,0,27.745-12.424,27.745-27.752C486.488,389.377,482.022,381.346,475.216,376.291z"/>
	<path id="XMLID_108_" d="M379.334,171.438c28.221-5.328,46.809-32.526,41.471-60.771c-5.32-28.229-32.502-46.809-60.756-41.479
		c-28.256,5.32-46.823,32.518-41.504,60.764C323.881,158.188,351.078,176.758,379.334,171.438z"/>
	<path id="XMLID_107_" d="M493.207,126.43c-1.449-1.535-3.736-1.97-5.645-1.064c-19.388,9.112-33.113-5.049-41.913-5.049
		c-10.332,0-18.704,8.373-18.704,18.697c0,10.334,8.372,18.706,18.704,18.706c27.281,0,41.846-13.667,48.31-25.595
		C494.963,130.267,494.656,127.964,493.207,126.43z"/>
	<path id="XMLID_106_" d="M247.455,144.888c3.923,0,7.11-16.054,7.11-19.966c0-3.939-3.188-7.112-7.11-7.112
		c-3.906,0-7.094,3.173-7.094,7.112C240.361,128.834,243.549,144.888,247.455,144.888z"/>
	<path id="XMLID_105_" d="M254.566,176.392c0-3.931-3.188-19.968-7.11-19.968c-3.906,0-7.094,16.037-7.094,19.968
		c0,3.922,3.188,7.102,7.094,7.102C251.378,183.494,254.566,180.314,254.566,176.392z"/>
	<path id="XMLID_104_" d="M243.381,146.567c2.762-2.762-6.326-16.37-9.105-19.132c-2.779-2.78-7.265-2.78-10.044-0.018
		c-2.78,2.779-2.78,7.274,0,10.053C227.011,140.25,240.619,149.348,243.381,146.567z"/>
	<path id="XMLID_103_" d="M251.547,154.727c-2.779,2.78,6.326,16.371,9.107,19.15c2.779,2.77,7.262,2.77,10.025,0
		c2.779-2.772,2.779-7.273,0-10.053C267.916,161.053,254.311,151.956,251.547,154.727z"/>
	<path id="XMLID_102_" d="M241.692,150.66c0-3.93-16.03-7.109-19.969-7.101c-3.938,0-7.093,3.161-7.11,7.084
		c0,3.931,3.172,7.11,7.11,7.11C225.662,157.754,241.692,154.574,241.692,150.66z"/>
	<path id="XMLID_101_" d="M253.234,150.644c0,3.931,16.047,7.11,19.969,7.103c3.94,0,7.111-3.172,7.111-7.103
		c0-3.923-3.171-7.102-7.111-7.102C269.281,143.551,253.234,146.731,253.234,150.644z"/>
	<path id="XMLID_100_" d="M243.396,154.727c-2.777-2.771-16.386,6.326-19.133,9.107c-2.777,2.779-2.777,7.264-0.032,10.043
		c2.779,2.77,7.265,2.77,10.061,0C237.055,171.098,246.143,157.507,243.396,154.727z"/>
	<path id="XMLID_99_" d="M251.547,146.567c2.78,2.78,16.369-6.317,19.133-9.097c2.779-2.787,2.779-7.273,0-10.053
		c-2.744-2.771-7.246-2.771-10.025,0C257.873,130.197,248.768,143.787,251.547,146.567z"/>
	<path id="XMLID_98_" d="M170.621,308.186c3.903,0,7.092-16.056,7.092-19.969c0-3.94-3.189-7.109-7.092-7.109
		c-3.922,0-7.111,3.17-7.111,7.109C163.51,292.13,166.699,308.186,170.621,308.186z"/>
	<path id="XMLID_97_" d="M170.621,346.79c3.903,0,7.092-3.18,7.092-7.101c0-3.932-3.189-19.969-7.092-19.969
		c-3.922,0-7.111,16.037-7.111,19.969C163.51,343.61,166.699,346.79,170.621,346.79z"/>
	<path id="XMLID_96_" d="M174.695,309.865c2.763,2.778,16.371-6.318,19.15-9.097c2.777-2.78,2.777-7.272,0-10.054
		c-2.779-2.762-7.266-2.762-10.045,0.019C181.023,293.496,171.934,307.104,174.695,309.865z"/>
	<path id="XMLID_95_" d="M147.395,327.121c-2.78,2.779-2.78,7.28,0,10.051c2.763,2.772,7.247,2.772,10.025,0
		c2.781-2.777,11.889-16.369,9.107-19.146C163.765,315.254,150.158,324.352,147.395,327.121z"/>
	<path id="XMLID_94_" d="M196.352,306.856c-3.939-0.01-19.967,3.171-19.967,7.102c0,3.914,16.027,7.094,19.967,7.094
		c3.939,0,7.109-3.18,7.109-7.11C203.445,310.02,200.29,306.856,196.352,306.856z"/>
	<path id="XMLID_93_" d="M144.873,321.042c3.921,0.009,19.966-3.171,19.966-7.102c0-3.914-16.045-7.095-19.966-7.103
		c-3.939,0-7.113,3.182-7.113,7.103C137.76,317.871,140.934,321.042,144.873,321.042z"/>
	<path id="XMLID_92_" d="M174.679,318.026c-2.745,2.777,6.344,16.369,9.105,19.146c2.797,2.772,7.283,2.772,10.063,0
		c2.744-2.777,2.744-7.264-0.035-10.043C191.066,324.352,177.458,315.254,174.679,318.026z"/>
	<path id="XMLID_91_" d="M166.527,309.865c2.781-2.779-6.326-16.369-9.107-19.15c-2.777-2.77-7.28-2.77-10.025,0
		c-2.78,2.781-2.78,7.266,0,10.054C150.158,303.547,163.748,312.644,166.527,309.865z"/>
	<path id="XMLID_90_" d="M32.841,308.186c3.923,0,7.112-16.056,7.112-19.969c0-3.94-3.19-7.109-7.112-7.109
		c-3.905,0-7.093,3.17-7.093,7.109C25.748,292.13,28.936,308.186,32.841,308.186z"/>
	<path id="XMLID_89_" d="M32.841,319.721c-3.905,0-7.093,16.037-7.093,19.969c0,3.921,3.188,7.101,7.093,7.101
		c3.923,0,7.112-3.18,7.112-7.101C39.953,335.758,36.764,319.721,32.841,319.721z"/>
	<path id="XMLID_88_" d="M28.764,309.865c2.766-2.762-6.324-16.369-9.103-19.132c-2.78-2.78-7.267-2.78-10.044-0.019
		c-2.781,2.781-2.781,7.273,0,10.054C12.395,303.547,26.002,312.644,28.764,309.865z"/>
	<path id="XMLID_87_" d="M56.065,337.172c2.779-2.771,2.779-7.271,0-10.051c-2.763-2.77-16.37-11.867-19.132-9.096
		c-2.779,2.777,6.325,16.369,9.105,19.146C48.818,339.943,53.303,339.943,56.065,337.172z"/>
	<path id="XMLID_86_" d="M27.078,313.957c0-3.931-16.027-7.111-19.969-7.102c-3.939,0-7.094,3.164-7.109,7.085
		c0,3.931,3.17,7.11,7.109,7.11C11.051,321.051,27.078,317.871,27.078,313.957z"/>
	<path id="XMLID_85_" d="M38.621,313.941c0,3.931,16.045,7.11,19.969,7.102c3.938,0,7.109-3.171,7.109-7.102
		c0-3.921-3.172-7.103-7.109-7.103C54.666,306.846,38.621,310.026,38.621,313.941z"/>
	<path id="XMLID_84_" d="M28.782,318.026c-2.78-2.772-16.388,6.326-19.132,9.103c-2.781,2.779-2.781,7.266-0.033,10.043
		c2.777,2.772,7.264,2.772,10.059,0C22.44,334.395,31.529,320.803,28.782,318.026z"/>
	<path id="XMLID_83_" d="M36.934,309.865c2.779,2.778,16.369-6.318,19.132-9.097c2.779-2.788,2.779-7.272,0-10.054
		c-2.745-2.77-7.247-2.77-10.026,0C43.259,293.496,34.154,307.086,36.934,309.865z"/>
	<path id="XMLID_82_" d="M58.912,367.381c-0.254,0.783-0.443,1.543-0.665,2.318c-3.069-14.297-7.212-25.432-7.57-26.36
		c-1.106-2.883-4.365-4.315-7.214-3.25c-2.898,1.092-4.346,4.332-3.256,7.222c0.121,0.308,8.254,22.135,9.857,43.115
		c-1.807-3.145-3.82-6.395-6.172-9.685c-11.271-15.79-28.683-22.663-28.683-22.663s0.835,18.707,12.106,34.479
		c7.076,9.907,14.75,17.579,20.633,21.119c-0.035,0.085-0.035,0.169-0.067,0.245c-1.059,2.9,0.443,6.114,3.358,7.172
		c0.632,0.23,1.279,0.341,1.908,0.341c2.287,0,4.434-1.415,5.271-3.69c1.619-4.461,2.473-9.423,2.848-14.58
		c5.303-2.994,12.189-14.579,17.016-29.525c5.951-18.458,1.093-36.534,1.093-36.534S64.863,348.931,58.912,367.381z"/>
	<path id="XMLID_81_" d="M159.57,371.234c-1.688,2.361-3.189,4.699-4.604,7.009c2.898-16.474,8.201-30.694,8.287-30.941
		c1.092-2.89-0.357-6.121-3.257-7.213c-2.866-1.116-6.105,0.357-7.212,3.25c-0.41,1.056-5.766,15.414-8.783,32.626
		c-6.225-17.613-19.918-28.867-19.918-28.867s-4.859,18.074,1.092,36.533c5.357,16.609,13.285,29.142,18.724,30.242
		c0.358,1.313,0.683,2.625,1.142,3.871c0.838,2.275,2.984,3.69,5.271,3.69c0.63,0,1.278-0.11,1.911-0.341
		c2.914-1.058,4.414-4.272,3.357-7.172c-0.988-2.693-1.604-5.668-1.996-8.789c6.056-2.848,14.664-11.023,22.561-22.081
		c11.271-15.772,12.105-34.48,12.105-34.48S170.843,355.443,159.57,371.234z"/>
</g>
<g>
</g>
<g>
</g>
<g>
</g>
<g>
</g>
<g>
</g>
<g>
</g>
<g>
</g>
<g>
</g>
<g>
</g>
<g>
</g>
<g>
</g>
<g>
</g>
<g>
</g>
<g>
</g>
<g>
</g>
</svg>
