<?xml version="1.0" standalone="no"?>
<!DOCTYPE svg PUBLIC "-//W3C//DTD SVG 20010904//EN"
 "http://www.w3.org/TR/2001/REC-SVG-20010904/DTD/svg10.dtd">
<svg version="1.0" xmlns="http://www.w3.org/2000/svg"
 viewBox="0 0 2600.000000 2600.000000"
 preserveAspectRatio="xMidYMid meet">
<metadata>
Created by potrace 1.15, written by Peter Selinger 2001-2017
</metadata>
<g transform="translate(0.000000,2600.000000) scale(0.100000,-0.100000)"
fill="#000000" stroke="none">
<path d="M8793 17919 c-406 -47 -792 -231 -1087 -518 -315 -307 -494 -657
-562 -1096 -13 -87 -15 -152 -11 -315 6 -230 26 -349 92 -547 194 -580 673
-1040 1256 -1208 212 -61 278 -70 539 -69 216 0 245 2 360 27 600 127 1078
502 1340 1049 399 836 117 1851 -659 2370 -244 163 -515 265 -807 303 -122 16
-342 18 -461 4z"/>
<path d="M14607 16596 c-65 -18 -123 -75 -142 -140 -12 -41 -15 -144 -15 -593
l0 -543 -1260 0 c-1117 0 -1265 -2 -1298 -16 -49 -20 -90 -60 -113 -109 -18
-38 -19 -105 -19 -1700 0 -1589 1 -1662 19 -1700 19 -42 66 -89 110 -108 19
-9 431 -13 1551 -17 l1524 -5 373 -520 c205 -286 391 -543 412 -572 65 -84
145 -115 234 -89 55 16 107 58 133 107 10 20 174 1031 174 1073 0 3 154 7 343
8 l344 3 48 30 c35 21 56 45 74 80 l26 49 3 873 2 873 774 0 c845 0 827 -1
890 58 16 15 37 45 47 67 18 38 19 97 19 1390 0 1291 -1 1352 -19 1390 -22 48
-53 78 -106 102 -38 17 -140 18 -2060 20 -1632 1 -2029 -1 -2068 -11z m3833
-1716 l0 -880 -655 0 -654 0 -3 583 -3 582 -25 45 c-14 24 -45 58 -68 75 l-44
30 -1059 3 -1059 2 0 220 0 220 1785 0 1785 0 0 -880z m-1730 -1670 l0 -1120
-322 0 c-291 0 -327 -2 -363 -19 -51 -23 -101 -80 -114 -128 -5 -21 -33 -189
-61 -373 -29 -184 -53 -336 -54 -337 -1 -2 -129 174 -284 390 -154 216 -291
402 -304 414 -59 56 28 53 -1563 53 l-1465 0 0 1120 0 1120 2265 0 2265 0 0
-1120z"/>
<path d="M7835 13674 c-95 -11 -289 -47 -395 -75 -461 -120 -743 -323 -948
-684 -97 -170 -184 -407 -262 -711 -51 -198 -142 -651 -171 -849 -45 -313
-606 -4670 -602 -4677 2 -5 834 -8 1847 -8 l1843 0 5 33 c3 17 81 745 173
1617 93 872 171 1588 174 1592 3 4 359 -272 791 -614 432 -341 810 -636 840
-656 85 -55 206 -108 315 -139 l100 -28 1470 0 1470 0 93 23 c291 74 422 239
423 532 1 264 -96 453 -298 584 -140 90 -274 131 -583 177 -376 55 -2412 349
-2420 349 -4 0 -629 705 -1387 1568 -1023 1162 -1399 1582 -1454 1626 -211
169 -439 280 -657 322 -79 15 -295 26 -367 18z"/>
<path d="M18145 11713 c-65 -24 -105 -53 -138 -101 -22 -31 -123 -391 -505
-1790 l-477 -1752 -1650 0 c-1416 0 -1660 -2 -1720 -15 -429 -91 -574 -627
-249 -924 67 -61 156 -106 249 -126 105 -22 3505 -22 3610 0 104 22 187 67
265 144 197 194 216 492 45 715 l-36 48 477 1746 c359 1313 478 1761 478 1802
0 105 -61 198 -157 240 -67 30 -132 34 -192 13z"/>
</g>
</svg>
