<svg xmlns="http://www.w3.org/2000/svg" id="Layer_1" data-name="Layer 1" viewBox="0 0 497.29 134.61"><defs><style>.cls-1{fill:#94311a;}.cls-2{fill:#532b15;}.cls-3{fill:#0a4f37;}.cls-4{fill:#00933a;}.cls-5{fill:#72bb6f;}.cls-6{fill:#63bc6c;}.cls-7{fill:#95c11f;}.cls-8{fill:#307bbf;}.cls-9{fill:#444;}</style></defs><path class="cls-1" d="M58.25,60c-6.33-3.11-7.73-10-3-14.56C60.8,48,63.71,54.11,58.25,60Z"></path><path class="cls-1" d="M89,47.88a11,11,0,0,0-1,.55c-.27.23-.55.44-.82.66-.69.54-1.38,1.08-2.09,1.6l-.75.52a22.21,22.21,0,0,1-3,1.89c-7.43,2.1-15.41,3-21.58,7.89a17,17,0,0,0-5.29,7.22,21,21,0,0,0-2.76,7.86c-.12.71-.2,1.42-.25,2.14,0,.18,0,.37-.05.55l-.06.38a.22.22,0,0,0,0,.16c0,.49-.06,1-.07,1.49a36.1,36.1,0,0,1-.93,5.42,8.34,8.34,0,0,1-.57,1.46,22.84,22.84,0,0,1-2.09,2.72,12.08,12.08,0,0,1-.88.87,8.49,8.49,0,0,0-1.58,3.07A11.06,11.06,0,0,1,49,93.26c1.11-.13,2.25-.25,3.39-.32l.3-.23a8,8,0,0,0,1.73-2.2,17.92,17.92,0,0,0,2-3.82,127.73,127.73,0,0,0,4.38-13.44c1.14-4,2.61-7.94,5.93-10.72S74.13,58.53,78,57a44.08,44.08,0,0,0,4.89-2.25,22.4,22.4,0,0,0,3.24-3c.68-.77,1.33-1.56,2-2.38.38-.51.81-1,1.16-1.6ZM62.24,64.56a22.87,22.87,0,0,0-2,3c-.29.51-.57,1-.84,1.54C57,73.21,57,77.88,55,82c1.82-4.42,1.56-9.61,4.11-13.85a22.52,22.52,0,0,1,8.35-8.48c-1.3,1.29-2.85,1.81-4,3.5Q62.81,63.88,62.24,64.56Zm5.39-6.91a14.84,14.84,0,0,0-1.43,1.11,18.68,18.68,0,0,0-3.45,2.4,28.27,28.27,0,0,0-7.23,11,26.42,26.42,0,0,0-1.8,7.41,20.36,20.36,0,0,1-.38,3.74,5.15,5.15,0,0,1-.92,2.23c.78-2.51.86-6.43,1.13-7.9a32.33,32.33,0,0,1,5.63-13.07,20.78,20.78,0,0,1,8.53-6.93Z"></path><path class="cls-2" d="M57.4,61.54a19.53,19.53,0,0,0-3-1.59c-.68-.31-1.38-.72-2.1-1-2.14-.74-5.61-1.63-7.64-2.19l-1.87-.3a24.23,24.23,0,0,0-4-.33,5.22,5.22,0,0,0-2.76.62,6.76,6.76,0,0,0,2.26.79c1,.3,2.11.58,3.15.9a17.7,17.7,0,0,1,4.28,2.06,28.32,28.32,0,0,1,4.51,3.24c.72.53,1.52.94,2.22,1.49a7,7,0,0,1,1,1.06c.17.19.37.37.55.56A37.4,37.4,0,0,1,57.4,61.54Z"></path><path class="cls-1" d="M48.15,81l.46.3a.57.57,0,0,1,.23.35l0,.1a4.92,4.92,0,0,1-1.28,2.47,2.85,2.85,0,0,1-2,.68,3.27,3.27,0,0,1-2-.66A5.65,5.65,0,0,1,42,81.91a5.53,5.53,0,0,1-2.45,2.31,8.65,8.65,0,0,1-3.86.78,4.59,4.59,0,0,1-3.1-.88,2.94,2.94,0,0,1-1-2.31,3.38,3.38,0,0,1,.3-1.36,4.38,4.38,0,0,1,1-1.36A9.12,9.12,0,0,1,35,77.6c.15-.08.66-.31,1.54-.69l5-2q.06-.77.06-1.56a7.26,7.26,0,0,0-.67-3.72A1.59,1.59,0,0,0,39.51,69a4.43,4.43,0,0,0-1.86.39,2.65,2.65,0,0,0-1.23,1,5.08,5.08,0,0,0-.49,1.68,3.05,3.05,0,0,1-.26,1,2.57,2.57,0,0,1-1.1.7c-.54.21-.9.36-1.09.45a4.31,4.31,0,0,1-1.73.53.85.85,0,0,1-.29-.69,3.78,3.78,0,0,1,.49-2,8.6,8.6,0,0,1,2.19-2.28,10.64,10.64,0,0,1,2.74-1.55,14.12,14.12,0,0,1,4.25-.56,6,6,0,0,1,2.78.6,3.19,3.19,0,0,1,1.62,1.77A13.31,13.31,0,0,1,46,74.3l-.05,3.34L46,80.09v.62a2.16,2.16,0,0,0,.22,1.17.7.7,0,0,0,.59.31.62.62,0,0,0,.38-.12l.61-.95Zm-6.63-4.7a12.71,12.71,0,0,0-2.6,1.29,6.1,6.1,0,0,0-2,1.81A3.09,3.09,0,0,0,36.5,81,2,2,0,0,0,37,82.45a1.63,1.63,0,0,0,1.22.57,2.9,2.9,0,0,0,1.92-.65A4,4,0,0,0,41.41,81a12.22,12.22,0,0,0,.19-2.92C41.6,77.47,41.57,76.88,41.52,76.28Z"></path><path class="cls-1" d="M63.18,83.76a1.59,1.59,0,0,1,.69-.33,6.08,6.08,0,0,0,2-.81A15.52,15.52,0,0,0,66,79.35a68.25,68.25,0,0,0-.22-6.91.9.9,0,0,0-.32-.57,6.14,6.14,0,0,0-1.38-.46.59.59,0,0,1-.48-.44l-.06-.75a6.47,6.47,0,0,0,2.71-1,7.32,7.32,0,0,0,1.82-1.67,5,5,0,0,1,.56-.71l1.42,0a3.53,3.53,0,0,1,.1.77c0,.15,0,.33,0,.54,0,.47,0,.87,0,1.18,0,.14,0,.7,0,1.67A21.53,21.53,0,0,1,71.35,69a14.48,14.48,0,0,1,1.08-1,2.59,2.59,0,0,1,1.55-.5,2.69,2.69,0,0,1,1.87.72A2.25,2.25,0,0,1,76.63,70,2.71,2.71,0,0,1,76,71.66a1.92,1.92,0,0,1-1.59.76,3,3,0,0,1-1.82-.73,1.71,1.71,0,0,0-.91-.44l-.14,0a1.47,1.47,0,0,0-.77.76,4.25,4.25,0,0,0-.57,2.1l0,.55q.09,1.48.12,7a1.39,1.39,0,0,0,1.13,1.41,7,7,0,0,0,1.3.21,2.51,2.51,0,0,1,1.13.25.71.71,0,0,1,.21.57,1.81,1.81,0,0,1-.13.59h-1.9l-3.86-.18c-1,0-1.85,0-2.65.12h-.34l-2.11.1a3.09,3.09,0,0,1-.06-.5A2.79,2.79,0,0,1,63.18,83.76Z"></path><path class="cls-1" d="M76.78,74.05a9,9,0,0,1,.93-2.29,10.14,10.14,0,0,1,2.42-2.59,7.89,7.89,0,0,1,2.31-1.24,8,8,0,0,1,2.17-.38,12.86,12.86,0,0,1,3.07.29,5.69,5.69,0,0,1,2,.84,9.2,9.2,0,0,1,1.82,1.59,6.88,6.88,0,0,1,1.13,1.9,7.57,7.57,0,0,1,.47,2.65l-2.24,0c-.62,0-2-.06-4.09-.17-.78-.07-1.32-.11-1.62-.11l-2.18,0H81.19a3,3,0,0,0,0,.48,10.74,10.74,0,0,0,.26,2.26,7.39,7.39,0,0,0,.79,2.09,5.78,5.78,0,0,0,1.31,1.55,4.91,4.91,0,0,0,1.6.94l1.18.38a13.28,13.28,0,0,0,2.08-.1,9.4,9.4,0,0,0,1.71-.51,10.15,10.15,0,0,0,1.79-1.07c.48.35.89.67,1.21,1a11.56,11.56,0,0,1-3.69,2.85,10.2,10.2,0,0,1-4.28.88A9.9,9.9,0,0,1,82.5,85a7.75,7.75,0,0,1-2.44-1.11A7.38,7.38,0,0,1,78.18,82,8.76,8.76,0,0,1,77,79.7a8.29,8.29,0,0,1-.5-2.47A16.15,16.15,0,0,1,76.78,74.05Zm11.75-.86A5.92,5.92,0,0,0,88.09,71a3.42,3.42,0,0,0-1.32-1.62,3.23,3.23,0,0,0-1.8-.58A3.29,3.29,0,0,0,82.52,70a5.21,5.21,0,0,0-1.23,3.24l4.61,0q.45,0,1.26-.06c.39,0,.66-.06.83-.06Z"></path><path class="cls-1" d="M94.75,74.05a9,9,0,0,1,.93-2.29,10.5,10.5,0,0,1,2.42-2.59,7.92,7.92,0,0,1,2.32-1.24,8,8,0,0,1,2.16-.38,13,13,0,0,1,3.08.29,5.77,5.77,0,0,1,2,.84,9.81,9.81,0,0,1,1.82,1.59,6.86,6.86,0,0,1,1.12,1.9,7.79,7.79,0,0,1,.48,2.65l-2.25,0c-.62,0-2-.06-4.08-.17-.79-.07-1.33-.11-1.62-.11l-2.19,0H99.16c0,.18,0,.35,0,.48a10.16,10.16,0,0,0,.27,2.26,6.83,6.83,0,0,0,.79,2.09,5.74,5.74,0,0,0,1.3,1.55,5.05,5.05,0,0,0,1.61.94l1.17.38a13.19,13.19,0,0,0,2.08-.1,9.4,9.4,0,0,0,1.71-.51,9.81,9.81,0,0,0,1.79-1.07c.49.35.89.67,1.22,1a11.79,11.79,0,0,1-3.69,2.85,10.23,10.23,0,0,1-4.28.88,9.8,9.8,0,0,1-2.61-.29A7.91,7.91,0,0,1,98,83.85,7.55,7.55,0,0,1,96.15,82a9.51,9.51,0,0,1-1.68-4.76A17,17,0,0,1,94.75,74.05Zm11.76-.86a6.14,6.14,0,0,0-.45-2.17,3.4,3.4,0,0,0-1.31-1.62,3.1,3.1,0,0,0-4.25.61,5.15,5.15,0,0,0-1.23,3.24l4.61,0c.29,0,.71,0,1.25-.06s.67-.06.83-.06Z"></path><path class="cls-3" d="M57.37,42.06a2.29,2.29,0,0,0-.1,1.24c.06.25.12.51.2.75a1.27,1.27,0,0,0,.2.44c.25.26.52.49.79.72a1.1,1.1,0,0,0,.4.21.91.91,0,0,1,.69.44s.06,0,.13.12c0-.15,0-.24,0-.34s0-.21.08-.22a1.77,1.77,0,0,0,.5-.39c.07-.05.16-.06.21-.12.19-.23.34-.49.54-.69a2.13,2.13,0,0,0,.59-1.41,5.84,5.84,0,0,0-.15-1.24,1.65,1.65,0,0,0-.22-.53,4.41,4.41,0,0,0-1-1,2,2,0,0,1-.58-.69v0a1.31,1.31,0,0,0-.25-.32.62.62,0,0,1-.09.27,6.36,6.36,0,0,1-.82.91,2.63,2.63,0,0,0-.48.46A6.25,6.25,0,0,0,57.37,42.06Z"></path><path class="cls-4" d="M67.63,45.53a3.62,3.62,0,0,0-.82,1.75c0,.4-.11.8-.13,1.2a1.63,1.63,0,0,0,0,.73,13.4,13.4,0,0,0,.75,1.46,1.56,1.56,0,0,0,.46.53,1.37,1.37,0,0,1,.76,1,1.28,1.28,0,0,0,.12.24c.09-.2.15-.34.22-.47s.16-.28.24-.28a3.76,3.76,0,0,0,1-.3c.11,0,.26,0,.36-.07.4-.23.76-.53,1.17-.72a3.31,3.31,0,0,0,1.63-1.73A8.05,8.05,0,0,0,73.86,47a2.37,2.37,0,0,0,0-.88A6.79,6.79,0,0,0,73,44.16a3,3,0,0,1-.47-1.31v0a2.25,2.25,0,0,0-.18-.59,1.07,1.07,0,0,1-.29.35,9,9,0,0,1-1.69.87,4.58,4.58,0,0,0-.95.43A10,10,0,0,0,67.63,45.53Z"></path><path class="cls-3" d="M81.7,44a2.78,2.78,0,0,0-1,1.16c-.12.29-.24.58-.34.88a1.41,1.41,0,0,0-.11.57,10.54,10.54,0,0,0,.27,1.24,1.23,1.23,0,0,0,.25.48,1.11,1.11,0,0,1,.38.89.68.68,0,0,0,0,.21l.27-.32c.07-.06.18-.18.24-.17a2.48,2.48,0,0,0,.77,0c.1,0,.2,0,.29,0a10.16,10.16,0,0,1,1-.32,2.67,2.67,0,0,0,1.58-1,6,6,0,0,0,.73-1.34,1.69,1.69,0,0,0,.16-.67A5.61,5.61,0,0,0,86,44,2.31,2.31,0,0,1,86,42.89v0a1.6,1.6,0,0,0,0-.49.75.75,0,0,1-.29.21,7.06,7.06,0,0,1-1.46.34,4.19,4.19,0,0,0-.8.15A7.28,7.28,0,0,0,81.7,44Z"></path><path class="cls-3" d="M93.93,50.31a2.74,2.74,0,0,0-1.2-.79c-.29-.08-.58-.17-.87-.23a1.3,1.3,0,0,0-.55,0,10,10,0,0,0-1.18.35,1.1,1.1,0,0,0-.44.26,1,1,0,0,1-.82.42.76.76,0,0,0-.19,0l.32.22c.07.05.19.14.18.2a2.26,2.26,0,0,0,.11.69c0,.09,0,.19,0,.27a7.89,7.89,0,0,1,.39.9A2.42,2.42,0,0,0,90.79,54a6.17,6.17,0,0,0,1.35.55,1.8,1.8,0,0,0,.65.09,5.4,5.4,0,0,0,1.53-.35,2.2,2.2,0,0,1,1-.17h0a1.76,1.76,0,0,0,.46-.06.88.88,0,0,1-.23-.24,6.88,6.88,0,0,1-.45-1.3,3.4,3.4,0,0,0-.2-.71A6.46,6.46,0,0,0,93.93,50.31Z"></path><path class="cls-3" d="M92.11,58.33a1.13,1.13,0,0,0-.09-.58,3.24,3.24,0,0,0-.17-.32.51.51,0,0,0-.14-.18,2.76,2.76,0,0,0-.44-.25.36.36,0,0,0-.2-.06.46.46,0,0,1-.36-.13l-.07,0a1,1,0,0,1,0,.15s0,.1,0,.11a.83.83,0,0,0-.19.23s-.07,0-.08.08-.11.25-.18.37a1,1,0,0,0-.12.7,2.27,2.27,0,0,0,.2.55.57.57,0,0,0,.16.22,2.16,2.16,0,0,0,.53.36.91.91,0,0,1,.34.26h0a.47.47,0,0,0,.15.13.23.23,0,0,1,0-.14,2.68,2.68,0,0,1,.28-.49,1.28,1.28,0,0,0,.17-.26A2.85,2.85,0,0,0,92.11,58.33Z"></path><path class="cls-5" d="M97.82,45.66a3.13,3.13,0,0,0-1.55,0c-.3.1-.61.2-.9.32a1.53,1.53,0,0,0-.52.28c-.29.32-.55.66-.81,1a1.28,1.28,0,0,0-.22.49,1,1,0,0,1-.46.85,1.64,1.64,0,0,0-.13.16h.42c.1,0,.26,0,.28.07.12.24.36.36.54.54s.09.18.17.23a9.23,9.23,0,0,1,.91.56,2.77,2.77,0,0,0,1.81.53,7.58,7.58,0,0,0,1.53-.32,2,2,0,0,0,.62-.31,5.65,5.65,0,0,0,1.12-1.22,2.26,2.26,0,0,1,.79-.75l0,0a1.89,1.89,0,0,0,.37-.32.85.85,0,0,1-.35-.08,7.63,7.63,0,0,1-1.21-.86,3.65,3.65,0,0,0-.62-.51A8,8,0,0,0,97.82,45.66Z"></path><path class="cls-4" d="M102.67,50.77a2,2,0,0,0-1-.17c-.21,0-.43,0-.64.1a.94.94,0,0,0-.38.12c-.24.18-.45.37-.67.57a.9.9,0,0,0-.21.3.73.73,0,0,1-.41.51.35.35,0,0,0-.11.09l.28.05c.06,0,.17,0,.18.08a2,2,0,0,0,.28.43s0,.12.09.17a6,6,0,0,1,.53.48,1.81,1.81,0,0,0,1.13.57,5.37,5.37,0,0,0,1.06,0,1.47,1.47,0,0,0,.45-.14,3.3,3.3,0,0,0,.9-.67,1.74,1.74,0,0,1,.62-.4h0a1.31,1.31,0,0,0,.28-.17.6.6,0,0,1-.22-.09,6.73,6.73,0,0,1-.69-.72,2.36,2.36,0,0,0-.35-.41A5,5,0,0,0,102.67,50.77Z"></path><path class="cls-6" d="M89.45,54.08a1.63,1.63,0,0,0-.4-.73c-.13-.12-.25-.25-.39-.36a.8.8,0,0,0-.27-.18,5.55,5.55,0,0,0-.71-.13.65.65,0,0,0-.31,0,.6.6,0,0,1-.54,0l-.12,0a2.19,2.19,0,0,1,.11.2s.06.12,0,.15a1.17,1.17,0,0,0-.15.39.91.91,0,0,0-.07.14,3.8,3.8,0,0,1-.06.58,1.39,1.39,0,0,0,.18,1,4.14,4.14,0,0,0,.54.65,1.24,1.24,0,0,0,.32.23,3.33,3.33,0,0,0,.89.23,1.37,1.37,0,0,1,.58.19h0a.93.93,0,0,0,.26.1.41.41,0,0,1,0-.18,4.47,4.47,0,0,1,.14-.8,1.6,1.6,0,0,0,.1-.42A4.08,4.08,0,0,0,89.45,54.08Z"></path><path class="cls-7" d="M102.11,42.06a2,2,0,0,0-1,.14l-.58.28a1.28,1.28,0,0,0-.32.24,6.81,6.81,0,0,0-.45.73.79.79,0,0,0-.11.35.73.73,0,0,1-.23.61s0,.06-.08.12l.28,0c.07,0,.17,0,.2,0s.27.21.4.32.08.11.14.13c.22.11.45.18.66.31a1.78,1.78,0,0,0,1.25.2,4.35,4.35,0,0,0,1-.33,1.33,1.33,0,0,0,.39-.26,3.44,3.44,0,0,0,.65-.91,1.61,1.61,0,0,1,.46-.57h0a.86.86,0,0,0,.22-.25.49.49,0,0,1-.24,0,4.73,4.73,0,0,1-.88-.48,3.89,3.89,0,0,0-.46-.29A5,5,0,0,0,102.11,42.06Z"></path><path class="cls-7" d="M87.53,45.08a1.13,1.13,0,0,0-.42.45,2.11,2.11,0,0,0-.16.34.46.46,0,0,0-.06.23,4.46,4.46,0,0,0,.07.51.72.72,0,0,0,.09.2.42.42,0,0,1,.13.36s0,0,0,.09l.11-.12s.08-.07.1-.06a1.14,1.14,0,0,0,.32,0s.08,0,.11,0a3,3,0,0,1,.43-.1,1,1,0,0,0,.66-.37,2.55,2.55,0,0,0,.33-.52.61.61,0,0,0,.08-.26,2.11,2.11,0,0,0,0-.66.9.9,0,0,1,0-.43h0a.67.67,0,0,0,0-.2.25.25,0,0,1-.12.08,3,3,0,0,1-.6.1,1.65,1.65,0,0,0-.32,0A3.22,3.22,0,0,0,87.53,45.08Z"></path><path class="cls-7" d="M80.26,57.28a1.13,1.13,0,0,0-.41.46c-.06.11-.11.23-.16.34a.68.68,0,0,0,0,.23,4.54,4.54,0,0,0,.09.51.4.4,0,0,0,.09.2.41.41,0,0,1,.13.36s0,0,0,.08l.12-.12s.07-.07.1-.06a1.09,1.09,0,0,0,.31,0l.11,0a2.26,2.26,0,0,1,.43-.11,1.08,1.08,0,0,0,.65-.38,2.2,2.2,0,0,0,.32-.53.61.61,0,0,0,.08-.27,2.06,2.06,0,0,0-.07-.65.9.9,0,0,1,0-.43h0a.67.67,0,0,0,0-.2.36.36,0,0,1-.12.08,2.8,2.8,0,0,1-.59.11A1.75,1.75,0,0,0,81,57,2.79,2.79,0,0,0,80.26,57.28Z"></path><path class="cls-7" d="M83.93,56.22a1.24,1.24,0,0,0-.21.58v.37a.79.79,0,0,0,0,.23,4.17,4.17,0,0,0,.29.44.39.39,0,0,0,.16.15c.12.07.24.14.27.28s0,0,0,.08,0-.12.06-.16,0-.09.06-.09a1.51,1.51,0,0,0,.29-.13.35.35,0,0,0,.11,0c.12-.08.22-.19.35-.26a1,1,0,0,0,.45-.59,3.21,3.21,0,0,0,.09-.61.9.9,0,0,0,0-.28,2.14,2.14,0,0,0-.32-.57,1,1,0,0,1-.19-.4h0A.58.58,0,0,0,85.3,55a.32.32,0,0,1-.08.12,3.61,3.61,0,0,1-.5.33,1.28,1.28,0,0,0-.28.16A2.78,2.78,0,0,0,83.93,56.22Z"></path><path class="cls-7" d="M94.09,60.18a1,1,0,0,0,.16.45,2.11,2.11,0,0,0,.19.23.32.32,0,0,0,.14.12,2.58,2.58,0,0,0,.39.14.47.47,0,0,0,.17,0,.35.35,0,0,1,.31,0l.06,0a.84.84,0,0,1,0-.12s0-.07,0-.09a.84.84,0,0,0,.11-.21s.05,0,.05-.07a3,3,0,0,1,.08-.32.78.78,0,0,0,0-.58,3,3,0,0,0-.25-.41.77.77,0,0,0-.16-.15,2,2,0,0,0-.48-.2.73.73,0,0,1-.32-.15h0a.39.39,0,0,0-.14-.08.21.21,0,0,1,0,.11,2.49,2.49,0,0,1-.14.44.92.92,0,0,0-.09.23A2.24,2.24,0,0,0,94.09,60.18Z"></path><path class="cls-7" d="M37,34a.9.9,0,0,0,.22.42l.21.21a.4.4,0,0,0,.15.1l.39.08h.18a.32.32,0,0,1,.3,0h.07a.41.41,0,0,1-.06-.11s0-.07,0-.09a.92.92,0,0,0,.09-.23s0,0,0-.08,0-.22,0-.33a.79.79,0,0,0-.09-.57,2.12,2.12,0,0,0-.29-.38.83.83,0,0,0-.18-.13,2,2,0,0,0-.49-.13.62.62,0,0,1-.33-.11h0a.44.44,0,0,0-.15-.05.19.19,0,0,1,0,.1,2.34,2.34,0,0,1-.09.46,1.14,1.14,0,0,0-.06.25A2.35,2.35,0,0,0,37,34Z"></path><path class="cls-7" d="M32.65,36.77a.91.91,0,0,0,.28.39c.08.05.15.11.24.16a.35.35,0,0,0,.16.08,2.67,2.67,0,0,0,.4,0,.47.47,0,0,0,.17,0,.38.38,0,0,1,.31-.05h.06l-.07-.11a.28.28,0,0,1,0-.08.52.52,0,0,0,.05-.24.32.32,0,0,0,0-.09c0-.11,0-.22,0-.33a.75.75,0,0,0-.18-.55,1.57,1.57,0,0,0-.35-.33.57.57,0,0,0-.19-.1,1.73,1.73,0,0,0-.51,0,.93.93,0,0,1-.34-.05h0l-.15,0a.42.42,0,0,1,0,.1,2.5,2.5,0,0,1,0,.47,2.11,2.11,0,0,0,0,.25A2.34,2.34,0,0,0,32.65,36.77Z"></path><path class="cls-7" d="M28.29,42.81a.86.86,0,0,0,.27.38l.24.17a.53.53,0,0,0,.17.08h.4a.33.33,0,0,0,.17,0,.32.32,0,0,1,.3,0h.07l-.08-.1s0-.07,0-.09a1,1,0,0,0,.05-.23.32.32,0,0,0,0-.09c0-.11,0-.22,0-.33a.84.84,0,0,0-.18-.56,2.15,2.15,0,0,0-.35-.32.44.44,0,0,0-.19-.1,1.77,1.77,0,0,0-.51,0,.76.76,0,0,1-.34-.06h0l-.15,0a.31.31,0,0,1,.05.1,2.5,2.5,0,0,1,0,.47.71.71,0,0,0,0,.25A2,2,0,0,0,28.29,42.81Z"></path><path class="cls-6" d="M39.23,32.43a.84.84,0,0,0,.21.42l.21.21a.4.4,0,0,0,.15.1c.13,0,.26.06.4.09a.33.33,0,0,0,.17,0,.37.37,0,0,1,.31,0l.06,0-.05-.12s0-.07,0-.09a.85.85,0,0,0,.09-.22s0-.05,0-.08,0-.22.05-.33a.81.81,0,0,0-.08-.57,2.55,2.55,0,0,0-.29-.38.83.83,0,0,0-.18-.13,2.19,2.19,0,0,0-.5-.14.81.81,0,0,1-.32-.11h0a.28.28,0,0,0-.14-.06.36.36,0,0,1,0,.1,1.9,1.9,0,0,1-.1.46,1.05,1.05,0,0,0-.06.24A2,2,0,0,0,39.23,32.43Z"></path><path class="cls-6" d="M37,31.31a.87.87,0,0,0,.21.43l.21.2a.72.72,0,0,0,.15.11l.4.08h.17a.31.31,0,0,1,.31,0h.07L38.41,32s0-.08,0-.09a.68.68,0,0,0,.09-.22.35.35,0,0,0,.05-.08c0-.11,0-.22,0-.33a.75.75,0,0,0-.08-.57,1.74,1.74,0,0,0-.29-.38.7.7,0,0,0-.17-.13,1.78,1.78,0,0,0-.5-.14A.73.73,0,0,1,37.2,30h0a.59.59,0,0,0-.14-.06.15.15,0,0,1,0,.11,1.8,1.8,0,0,1-.09.45,1.09,1.09,0,0,0-.07.24A2.35,2.35,0,0,0,37,31.31Z"></path><path class="cls-6" d="M65.23,19.28a.89.89,0,0,0-.15.4c0,.09,0,.18,0,.27a.9.9,0,0,0,0,.16,3.21,3.21,0,0,0,.19.31.57.57,0,0,0,.11.11.27.27,0,0,1,.19.2l0,.05a.28.28,0,0,1,0-.11s0-.06,0-.06a.88.88,0,0,0,.2-.09s.06,0,.08,0a2.15,2.15,0,0,1,.24-.18.71.71,0,0,0,.33-.41,2.83,2.83,0,0,0,.07-.42.63.63,0,0,0,0-.19,1.33,1.33,0,0,0-.21-.41.55.55,0,0,1-.13-.28h0s0-.09-.05-.12a.42.42,0,0,1-.06.08,1.82,1.82,0,0,1-.36.22,2,2,0,0,0-.2.11A2.22,2.22,0,0,0,65.23,19.28Z"></path><path class="cls-7" d="M47.81,25.34a.84.84,0,0,0,0,.47l.08.29a.48.48,0,0,0,.08.16,2.52,2.52,0,0,0,.3.27.35.35,0,0,0,.16.08.4.4,0,0,1,.26.16.12.12,0,0,0,.05.05.53.53,0,0,1,0-.13s0-.08,0-.08.13-.1.19-.15l.08-.05c.07-.08.13-.18.21-.26a.78.78,0,0,0,.21-.54,2,2,0,0,0-.06-.47.5.5,0,0,0-.08-.2,1.85,1.85,0,0,0-.37-.37.78.78,0,0,1-.22-.26h0a.58.58,0,0,0-.1-.12.2.2,0,0,1,0,.11,2,2,0,0,1-.31.34,1,1,0,0,0-.18.18A2,2,0,0,0,47.81,25.34Z"></path><path class="cls-7" d="M49.39,22.72a.94.94,0,0,0,0,.47c0,.1,0,.19.08.29a.48.48,0,0,0,.08.16,1.93,1.93,0,0,0,.3.27A.31.31,0,0,0,50,24a.36.36,0,0,1,.26.16l.05.05a.66.66,0,0,0,0-.13s0-.08,0-.08a.7.7,0,0,0,.19-.15l.08-.05c.07-.08.12-.18.2-.26A.79.79,0,0,0,51,23a2,2,0,0,0-.06-.47.72.72,0,0,0-.09-.2A1.58,1.58,0,0,0,50.5,22a.68.68,0,0,1-.22-.26h0a.34.34,0,0,0-.09-.12l0,.11a2.05,2.05,0,0,1-.32.34,1.45,1.45,0,0,0-.17.18A2.4,2.4,0,0,0,49.39,22.72Z"></path><path class="cls-7" d="M40.05,28.77a.94.94,0,0,0,0,.47c0,.1,0,.19.07.29a.48.48,0,0,0,.08.16,3.65,3.65,0,0,0,.3.27.35.35,0,0,0,.16.08.36.36,0,0,1,.26.16.12.12,0,0,0,0,.05.53.53,0,0,1,0-.13S41,30,41,30s.12-.1.19-.15.06,0,.07-.05.13-.18.21-.26a.84.84,0,0,0,.22-.54,2.67,2.67,0,0,0-.07-.47.5.5,0,0,0-.08-.2,2.1,2.1,0,0,0-.36-.37.71.71,0,0,1-.23-.26h0a1.46,1.46,0,0,0-.09-.13.36.36,0,0,1,0,.11,2,2,0,0,1-.31.34,1,1,0,0,0-.18.18A2,2,0,0,0,40.05,28.77Z"></path><path class="cls-7" d="M54.39,21.86a.94.94,0,0,0,0,.47c0,.1,0,.19.08.29a.48.48,0,0,0,.08.16,1.93,1.93,0,0,0,.3.27.31.31,0,0,0,.15.08.36.36,0,0,1,.26.16l.05.05a.53.53,0,0,1,0-.13s0-.08,0-.08a.7.7,0,0,0,.19-.15l.08-.05c.07-.08.12-.18.2-.26a.79.79,0,0,0,.22-.54,2,2,0,0,0-.06-.47.72.72,0,0,0-.09-.2,1.58,1.58,0,0,0-.36-.37.68.68,0,0,1-.22-.26h0a.38.38,0,0,0-.09-.13.36.36,0,0,1,0,.11,1.65,1.65,0,0,1-.31.34,1.45,1.45,0,0,0-.17.18A2.4,2.4,0,0,0,54.39,21.86Z"></path><path class="cls-7" d="M59.72,20.56a.84.84,0,0,0,.08.47l.14.26a.38.38,0,0,0,.11.14,2.08,2.08,0,0,0,.36.2.33.33,0,0,0,.16.05.36.36,0,0,1,.3.1l.05,0a.37.37,0,0,0,0-.12.22.22,0,0,1,0-.09c.08-.05.1-.13.15-.19s.06,0,.07-.06a2.75,2.75,0,0,1,.14-.3.82.82,0,0,0,.09-.57,2.07,2.07,0,0,0-.17-.45.52.52,0,0,0-.13-.17,1.62,1.62,0,0,0-.43-.29.72.72,0,0,1-.28-.2h0a1.06,1.06,0,0,0-.12-.1.37.37,0,0,1,0,.11,2.38,2.38,0,0,1-.23.41.92.92,0,0,0-.13.21A2.16,2.16,0,0,0,59.72,20.56Z"></path><path class="cls-7" d="M99.47,60a1,1,0,0,0,.28.39c.09.06.17.13.26.18a.3.3,0,0,0,.17.08,3,3,0,0,0,.42,0,.47.47,0,0,0,.17,0,.37.37,0,0,1,.32,0h.07l-.08-.11s0-.07,0-.08a1,1,0,0,0,0-.24.32.32,0,0,0,0-.09c0-.11,0-.22,0-.34a.8.8,0,0,0-.18-.56,2.41,2.41,0,0,0-.37-.34.42.42,0,0,0-.2-.1,1.58,1.58,0,0,0-.53-.07.78.78,0,0,1-.35-.07h0a.48.48,0,0,0-.15,0,.42.42,0,0,1,0,.1,2.57,2.57,0,0,1,0,.48,1.07,1.07,0,0,0,0,.25A2.44,2.44,0,0,0,99.47,60Z"></path><path class="cls-7" d="M111.69,49.39a.77.77,0,0,0,.4,0l.24-.07a.3.3,0,0,0,.14-.06,2.73,2.73,0,0,0,.23-.25.29.29,0,0,0,.07-.12.26.26,0,0,1,.14-.21l0,0h-.11l-.08,0c0-.07-.08-.1-.12-.15a.25.25,0,0,1,0-.07,1.88,1.88,0,0,1-.23-.16.71.71,0,0,0-.46-.17,1.83,1.83,0,0,0-.4,0,.51.51,0,0,0-.17.07,1.75,1.75,0,0,0-.32.29.48.48,0,0,1-.22.18h0a.26.26,0,0,0-.1.07l.08,0a1.42,1.42,0,0,1,.3.25.66.66,0,0,0,.15.14A1.92,1.92,0,0,0,111.69,49.39Z"></path><path class="cls-7" d="M91.53,26a.69.69,0,0,0,.16-.36l0-.25a.43.43,0,0,0,0-.16,2.1,2.1,0,0,0-.15-.3.31.31,0,0,0-.09-.11.28.28,0,0,1-.15-.2l0-.05,0,.1s0,.06,0,.06a.55.55,0,0,0-.18.06l-.08,0a1.82,1.82,0,0,1-.23.15.68.68,0,0,0-.32.37,1.67,1.67,0,0,0-.1.4.56.56,0,0,0,0,.18,1.52,1.52,0,0,0,.16.4.51.51,0,0,1,.09.27h0a.65.65,0,0,0,0,.13.22.22,0,0,1,0-.08,2.21,2.21,0,0,1,.34-.18c.06,0,.14-.05.19-.1A1.49,1.49,0,0,0,91.53,26Z"></path><path class="cls-7" d="M83.31,22.18a.89.89,0,0,0,.17-.37,2.11,2.11,0,0,0,0-.25.25.25,0,0,0,0-.15,2.92,2.92,0,0,0-.14-.31.32.32,0,0,0-.1-.1.3.3,0,0,1-.15-.21l0-.05,0,.1s0,.06-.05.06a.62.62,0,0,0-.19.07h-.07c-.08.05-.15.12-.23.16a.68.68,0,0,0-.33.36,1.92,1.92,0,0,0-.09.4.54.54,0,0,0,0,.18,1.4,1.4,0,0,0,.16.4.58.58,0,0,1,.09.27h0a.24.24,0,0,0,0,.12.2.2,0,0,1,.06-.07,1.86,1.86,0,0,1,.34-.19,1,1,0,0,0,.18-.09A2,2,0,0,0,83.31,22.18Z"></path><path class="cls-7" d="M78.79,20.86a.73.73,0,0,0,.16-.37l0-.24a.42.42,0,0,0,0-.16,2.1,2.1,0,0,0-.15-.3.31.31,0,0,0-.09-.11.28.28,0,0,1-.15-.2.17.17,0,0,0,0-.05l0,.1s0,.06,0,.06a.6.6,0,0,0-.19.06l-.07,0a1.94,1.94,0,0,1-.24.15.72.72,0,0,0-.32.37,2.48,2.48,0,0,0-.1.39.61.61,0,0,0,0,.19,1.52,1.52,0,0,0,.16.4.51.51,0,0,1,.09.27h0a.65.65,0,0,0,0,.13.22.22,0,0,1,.05-.08,2.27,2.27,0,0,1,.34-.19.66.66,0,0,0,.19-.09A2,2,0,0,0,78.79,20.86Z"></path><path class="cls-7" d="M73.88,19.49a.76.76,0,0,0,.16-.37,2.13,2.13,0,0,0,0-.25.37.37,0,0,0,0-.15,1.77,1.77,0,0,0-.15-.31.22.22,0,0,0-.09-.1.3.3,0,0,1-.15-.21s0,0,0-.05a.3.3,0,0,1-.05.1s0,.06,0,.06a.62.62,0,0,0-.19.07H73.3a2,2,0,0,1-.24.16.71.71,0,0,0-.32.36,1.92,1.92,0,0,0-.09.4.37.37,0,0,0,0,.18,1.4,1.4,0,0,0,.16.4.58.58,0,0,1,.09.27h0a.42.42,0,0,0,0,.12.13.13,0,0,1,.06-.07,1.77,1.77,0,0,1,.33-.19.84.84,0,0,0,.19-.09A2,2,0,0,0,73.88,19.49Z"></path><path class="cls-7" d="M99,32a.9.9,0,0,0,.37-.17,1.54,1.54,0,0,0,.19-.17.27.27,0,0,0,.09-.12,3,3,0,0,0,.1-.32.33.33,0,0,0,0-.14.28.28,0,0,1,0-.25s0,0,0-.06l-.1,0a.12.12,0,0,1-.08,0c0-.05-.12-.05-.18-.08l-.06,0-.28,0a.69.69,0,0,0-.49,0,2.44,2.44,0,0,0-.33.23.53.53,0,0,0-.12.14,1.53,1.53,0,0,0-.14.41.69.69,0,0,1-.12.26h0a.39.39,0,0,0-.06.11.16.16,0,0,1,.1,0,1.63,1.63,0,0,1,.37.08.89.89,0,0,0,.2.06A2.79,2.79,0,0,0,99,32Z"></path><path class="cls-7" d="M100.57,33.34a.82.82,0,0,0,.37-.16l.18-.17a.38.38,0,0,0,.1-.12c0-.11.06-.21.09-.32a.33.33,0,0,0,0-.14.3.3,0,0,1,0-.26.2.2,0,0,0,0-.05l-.1.05s-.06,0-.07,0a.64.64,0,0,0-.19-.08l-.06,0a2.16,2.16,0,0,1-.27,0,.74.74,0,0,0-.49.06,2.54,2.54,0,0,0-.34.23.76.76,0,0,0-.11.14,1.27,1.27,0,0,0-.15.41.6.6,0,0,1-.11.26h0a.39.39,0,0,0-.06.11l.09,0a2.62,2.62,0,0,1,.38.09,1.52,1.52,0,0,0,.2.06A2.13,2.13,0,0,0,100.57,33.34Z"></path><path class="cls-7" d="M105.51,38.46a.82.82,0,0,0,.37-.16l.19-.17a.94.94,0,0,0,.09-.12,2,2,0,0,0,.09-.33.32.32,0,0,0,0-.14.25.25,0,0,1,0-.25s0,0,0,0l-.1,0s-.07,0-.08,0-.12,0-.18-.08l-.07,0a1.26,1.26,0,0,1-.27,0,.69.69,0,0,0-.49.06,1.5,1.5,0,0,0-.33.23.53.53,0,0,0-.12.14,1.44,1.44,0,0,0-.15.41.66.66,0,0,1-.11.26h0a.67.67,0,0,0-.06.12l.09,0a1.62,1.62,0,0,1,.38.09,1.46,1.46,0,0,0,.2,0A1.68,1.68,0,0,0,105.51,38.46Z"></path><path class="cls-7" d="M108.84,43a.68.68,0,0,0,.37-.06l.21-.11.11-.08c.06-.09.11-.18.16-.27a.31.31,0,0,0,0-.13.27.27,0,0,1,.08-.22l0,0h-.1s-.06,0-.07,0a.39.39,0,0,0-.15-.11s0,0-.05,0l-.24-.1a.59.59,0,0,0-.45-.06,1.48,1.48,0,0,0-.35.13.45.45,0,0,0-.14.1,1.3,1.3,0,0,0-.23.33.56.56,0,0,1-.16.21h0l-.08.09h.09a1.59,1.59,0,0,1,.32.16.86.86,0,0,0,.16.1A1.79,1.79,0,0,0,108.84,43Z"></path><path class="cls-7" d="M113.52,54.63a1,1,0,0,0,.41,0l.24-.06.14-.07a2.61,2.61,0,0,0,.23-.24.33.33,0,0,0,.07-.13.32.32,0,0,1,.13-.21s0,0,0,0h-.11s-.06,0-.07,0a.61.61,0,0,0-.13-.15s0,0,0-.06-.15-.1-.22-.17a.71.71,0,0,0-.46-.17,2.73,2.73,0,0,0-.4,0,.51.51,0,0,0-.17.07,1.52,1.52,0,0,0-.32.3.65.65,0,0,1-.22.18h0l-.11.08.09,0a3.61,3.61,0,0,1,.3.25,1.06,1.06,0,0,0,.15.15A2.62,2.62,0,0,0,113.52,54.63Z"></path><path class="cls-7" d="M110.86,60a.93.93,0,0,0,.24.32l.21.14a.59.59,0,0,0,.14.06h.34a.31.31,0,0,0,.13,0,.28.28,0,0,1,.25,0h.06l-.07-.09s0-.05,0-.07a.63.63,0,0,0,0-.19.24.24,0,0,0,0-.08,2.45,2.45,0,0,1,0-.27.74.74,0,0,0-.17-.46,1.58,1.58,0,0,0-.31-.27.35.35,0,0,0-.16-.08,1.24,1.24,0,0,0-.43-.05.52.52,0,0,1-.28,0h0a.25.25,0,0,0-.12,0,.2.2,0,0,1,0,.08,2.54,2.54,0,0,1,0,.39.74.74,0,0,0,0,.21A1.74,1.74,0,0,0,110.86,60Z"></path><path class="cls-7" d="M103.84,60.1a.8.8,0,0,0,.25.32,1.53,1.53,0,0,0,.21.14.25.25,0,0,0,.14.06,1.83,1.83,0,0,0,.33,0,.32.32,0,0,0,.14,0,.25.25,0,0,1,.25,0h0l-.06-.08s0-.06,0-.07a.75.75,0,0,0,0-.2s0,0,0-.07a2.66,2.66,0,0,1,0-.28.64.64,0,0,0-.17-.46,2,2,0,0,0-.3-.27.53.53,0,0,0-.17-.08,1.2,1.2,0,0,0-.42,0,.71.71,0,0,1-.29-.05h0l-.13,0a.12.12,0,0,1,0,.08,1.7,1.7,0,0,1,0,.39,1.48,1.48,0,0,0,0,.21A2.18,2.18,0,0,0,103.84,60.1Z"></path><path class="cls-7" d="M34.37,61.19a.9.9,0,0,0-.18-.44l-.2-.22a.39.39,0,0,0-.14-.12,3,3,0,0,0-.4-.12.33.33,0,0,0-.17,0,.38.38,0,0,1-.31,0l-.06,0,.05.12s0,.08,0,.09a.58.58,0,0,0-.1.21s0,0,0,.08,0,.22-.06.32a.83.83,0,0,0,0,.58,3.51,3.51,0,0,0,.27.4.8.8,0,0,0,.17.15,1.7,1.7,0,0,0,.49.18.73.73,0,0,1,.32.15h0c.05,0,.1.06.14.07a.21.21,0,0,1,0-.11A1.8,1.8,0,0,1,34.3,62a2.25,2.25,0,0,0,.08-.24A2.34,2.34,0,0,0,34.37,61.19Z"></path><path class="cls-7" d="M39.71,59.52a1,1,0,0,0-.19-.44,2.2,2.2,0,0,0-.2-.23.49.49,0,0,0-.14-.11l-.39-.13a.55.55,0,0,0-.18,0,.34.34,0,0,1-.31,0l-.06,0a1,1,0,0,1,0,.12s0,.07,0,.08a.72.72,0,0,0-.1.22l-.05.07c0,.11,0,.22-.06.33a.75.75,0,0,0,0,.57,1.82,1.82,0,0,0,.27.41.73.73,0,0,0,.16.14,2.08,2.08,0,0,0,.49.19.84.84,0,0,1,.32.14h0a.37.37,0,0,0,.14.07.18.18,0,0,1,0-.1,2.5,2.5,0,0,1,.12-.45.7.7,0,0,0,.08-.23A2.33,2.33,0,0,0,39.71,59.52Z"></path><path class="cls-6" d="M107,43.22a1.62,1.62,0,0,0-.79.11l-.44.22a.76.76,0,0,0-.25.18,6.53,6.53,0,0,0-.35.56.65.65,0,0,0-.08.27.54.54,0,0,1-.18.47s0,0-.06.09l.22,0s.13,0,.15,0a1.22,1.22,0,0,0,.31.25s.06.09.1.11a4.67,4.67,0,0,1,.51.23,1.46,1.46,0,0,0,1,.16,3.59,3.59,0,0,0,.76-.26,1,1,0,0,0,.3-.2,2.55,2.55,0,0,0,.49-.69,1.42,1.42,0,0,1,.36-.44h0a1,1,0,0,0,.17-.19.4.4,0,0,1-.19,0,3.61,3.61,0,0,1-.67-.36,1.93,1.93,0,0,0-.36-.22A3.83,3.83,0,0,0,107,43.22Z"></path><path class="cls-3" d="M107.23,54a1.4,1.4,0,0,0-.61-.46l-.45-.15a.63.63,0,0,0-.3,0c-.21,0-.42.09-.63.14a.75.75,0,0,0-.25.13.56.56,0,0,1-.45.2s-.05,0-.1,0a1.32,1.32,0,0,1,.16.12s.1.08.09.11a1.2,1.2,0,0,0,0,.38.66.66,0,0,0,0,.14,4.09,4.09,0,0,1,.18.49,1.27,1.27,0,0,0,.54.76,4,4,0,0,0,.69.33.84.84,0,0,0,.35.07,2.88,2.88,0,0,0,.82-.14,1.2,1.2,0,0,1,.56,0h0a.93.93,0,0,0,.24,0,.69.69,0,0,1-.11-.13,4.12,4.12,0,0,1-.19-.71,1.51,1.51,0,0,0-.09-.38A3.37,3.37,0,0,0,107.23,54Z"></path><path class="cls-7" d="M109.07,58.67a1.46,1.46,0,0,0-.61-.46l-.45-.15a1,1,0,0,0-.3,0,4.8,4.8,0,0,0-.63.15.58.58,0,0,0-.25.12.56.56,0,0,1-.45.2l-.1,0a1.32,1.32,0,0,1,.16.12s.1.09.09.12a1.14,1.14,0,0,0,0,.37.71.71,0,0,0,0,.14,5,5,0,0,1,.18.5,1.28,1.28,0,0,0,.54.75,3.17,3.17,0,0,0,.69.34,1,1,0,0,0,.35.06,2.57,2.57,0,0,0,.82-.14,1.3,1.3,0,0,1,.55-.05h0a.69.69,0,0,0,.25,0,.47.47,0,0,1-.11-.13,3.46,3.46,0,0,1-.19-.7,2.23,2.23,0,0,0-.09-.39A3.57,3.57,0,0,0,109.07,58.67Z"></path><path class="cls-6" d="M112.4,55a1.6,1.6,0,0,0-.76-.23,3.93,3.93,0,0,0-.49,0,.58.58,0,0,0-.3.06,4.1,4.1,0,0,0-.56.36.9.9,0,0,0-.19.2.57.57,0,0,1-.36.35l-.09.06.2.06c.05,0,.13,0,.13.08a1.35,1.35,0,0,0,.17.34c0,.05,0,.1,0,.14a3.31,3.31,0,0,1,.35.41,1.38,1.38,0,0,0,.8.54,3.47,3.47,0,0,0,.79.08,1.09,1.09,0,0,0,.36-.06,2.72,2.72,0,0,0,.74-.42,1.26,1.26,0,0,1,.51-.24h0a.94.94,0,0,0,.23-.1.51.51,0,0,1-.16-.09,3.39,3.39,0,0,1-.44-.61,2,2,0,0,0-.23-.34A4.1,4.1,0,0,0,112.4,55Z"></path><path class="cls-6" d="M115.6,59.38a1.21,1.21,0,0,0-.5-.37l-.37-.12a.67.67,0,0,0-.24,0L114,59a.49.49,0,0,0-.2.11.45.45,0,0,1-.37.15l-.08,0,.13.1s.08.07.08.09a.8.8,0,0,0,0,.31s0,.08,0,.11a2.74,2.74,0,0,1,.15.4,1,1,0,0,0,.43.61,2.89,2.89,0,0,0,.56.27.71.71,0,0,0,.28.06,2.54,2.54,0,0,0,.67-.11.87.87,0,0,1,.45-.05h0a.67.67,0,0,0,.2,0,.31.31,0,0,1-.09-.11,2.84,2.84,0,0,1-.16-.57A1.55,1.55,0,0,0,116,60,2.94,2.94,0,0,0,115.6,59.38Z"></path><path class="cls-6" d="M109,52.15a1.39,1.39,0,0,0-.62-.21H108a.93.93,0,0,0-.25,0l-.47.29a.52.52,0,0,0-.16.17.44.44,0,0,1-.31.27l-.07,0,.16.05s.1,0,.11.07.09.19.13.29,0,.09,0,.12a3.07,3.07,0,0,1,.29.34,1.12,1.12,0,0,0,.64.47,2.75,2.75,0,0,0,.65.08.78.78,0,0,0,.3,0,2.61,2.61,0,0,0,.62-.32,1,1,0,0,1,.42-.2h0a.6.6,0,0,0,.2-.08.33.33,0,0,1-.13-.07,3.15,3.15,0,0,1-.35-.52,1.34,1.34,0,0,0-.18-.28A2.85,2.85,0,0,0,109,52.15Z"></path><path class="cls-6" d="M109.83,49.26a.92.92,0,0,0-.52,0,1.87,1.87,0,0,0-.32.08.58.58,0,0,0-.18.08,2.2,2.2,0,0,0-.3.31.43.43,0,0,0-.09.16.37.37,0,0,1-.19.28l0,0h.15s.08,0,.09,0,.11.13.16.2a.24.24,0,0,0,.06.08c.09.08.2.14.29.22a.89.89,0,0,0,.59.23,2.39,2.39,0,0,0,.53-.06.85.85,0,0,0,.22-.09,1.85,1.85,0,0,0,.41-.38.74.74,0,0,1,.3-.23h0a.71.71,0,0,0,.14-.1.27.27,0,0,1-.12,0,3,3,0,0,1-.38-.33c-.07-.06-.12-.15-.2-.19A2.91,2.91,0,0,0,109.83,49.26Z"></path><path class="cls-6" d="M112.37,51.12a1,1,0,0,0-.52,0l-.32.08a.58.58,0,0,0-.18.08,3,3,0,0,0-.3.32.37.37,0,0,0-.09.16.41.41,0,0,1-.18.28s0,0-.06,0h.15s.08,0,.09,0,.11.13.17.2,0,.06.05.08.2.13.29.21a1,1,0,0,0,.59.24,2.33,2.33,0,0,0,.53-.07.47.47,0,0,0,.22-.09,2.1,2.1,0,0,0,.42-.37.75.75,0,0,1,.29-.24h0a.5.5,0,0,0,.14-.1.19.19,0,0,1-.12,0,2.3,2.3,0,0,1-.38-.32c-.07-.06-.12-.15-.2-.19A2.46,2.46,0,0,0,112.37,51.12Z"></path><path class="cls-6" d="M104.16,56.46A1,1,0,0,0,104,56l-.22-.24a.35.35,0,0,0-.15-.12l-.43-.13a.61.61,0,0,0-.19,0,.38.38,0,0,1-.33,0l-.07,0,0,.12s0,.08,0,.1a1,1,0,0,0-.11.23s0,0,0,.08,0,.24-.07.35a.88.88,0,0,0,0,.62,1.8,1.8,0,0,0,.29.43.55.55,0,0,0,.18.16,1.6,1.6,0,0,0,.53.19.75.75,0,0,1,.34.15h0A1,1,0,0,0,104,58a.5.5,0,0,1,0-.12,2.54,2.54,0,0,1,.14-.47,1.29,1.29,0,0,0,.08-.26A2,2,0,0,0,104.16,56.46Z"></path><path class="cls-6" d="M93.78,56.29a.94.94,0,0,0-.2-.47l-.21-.24a.45.45,0,0,0-.16-.12l-.42-.13a.61.61,0,0,0-.19,0,.41.41,0,0,1-.34,0l-.06,0,0,.13s0,.08,0,.1a1,1,0,0,0-.11.23s-.05.05-.05.08,0,.24-.07.35a.78.78,0,0,0,0,.62,1.55,1.55,0,0,0,.29.43.56.56,0,0,0,.18.16,1.86,1.86,0,0,0,.53.19.75.75,0,0,1,.34.15h0a.69.69,0,0,0,.15.07.5.5,0,0,1,0-.12,2.54,2.54,0,0,1,.14-.47,1.29,1.29,0,0,0,.08-.26A2.29,2.29,0,0,0,93.78,56.29Z"></path><path class="cls-6" d="M88.38,58.22a1,1,0,0,0-.1-.51c0-.09-.1-.18-.16-.27a.48.48,0,0,0-.12-.16l-.4-.2a.37.37,0,0,0-.18,0,.38.38,0,0,1-.32-.1l-.06,0a.69.69,0,0,1,0,.13s0,.09,0,.1-.11.14-.16.2-.06,0-.07.07a3.27,3.27,0,0,1-.14.33.84.84,0,0,0-.08.62,2.39,2.39,0,0,0,.19.48A.52.52,0,0,0,87,59a1.69,1.69,0,0,0,.48.3.9.9,0,0,1,.3.21h0a.64.64,0,0,0,.13.1.17.17,0,0,1,0-.12,2.32,2.32,0,0,1,.23-.44c0-.08.11-.15.14-.23A3.1,3.1,0,0,0,88.38,58.22Z"></path><path class="cls-6" d="M98.05,61a.87.87,0,0,0-.2-.47,1.64,1.64,0,0,0-.21-.24.48.48,0,0,0-.16-.13,2.9,2.9,0,0,0-.42-.12.41.41,0,0,0-.19,0,.38.38,0,0,1-.33,0l-.07,0a1.12,1.12,0,0,1,0,.13s0,.08,0,.09a1,1,0,0,0-.11.24.56.56,0,0,0,0,.08c0,.11,0,.23-.07.35a.83.83,0,0,0,0,.62,2.32,2.32,0,0,0,.29.43.54.54,0,0,0,.18.15,1.87,1.87,0,0,0,.53.2.75.75,0,0,1,.34.15h0l.15.08a.5.5,0,0,1,0-.12,2.9,2.9,0,0,1,.14-.48,1.44,1.44,0,0,0,.08-.25A2.29,2.29,0,0,0,98.05,61Z"></path><path class="cls-6" d="M102.47,58.68a.73.73,0,0,0-.15-.35l-.16-.18a.48.48,0,0,0-.11-.09,1.92,1.92,0,0,0-.32-.09.23.23,0,0,0-.14,0,.28.28,0,0,1-.25,0h0l0,.09s0,.06,0,.07a.7.7,0,0,0-.09.17s0,0,0,.06a2.61,2.61,0,0,1-.06.27.66.66,0,0,0,0,.46,2,2,0,0,0,.22.32.47.47,0,0,0,.13.11,1.85,1.85,0,0,0,.39.15.56.56,0,0,1,.26.11h0a.39.39,0,0,0,.11.06.29.29,0,0,1,0-.09c0-.12.07-.24.1-.36a1.34,1.34,0,0,0,.07-.18A1.93,1.93,0,0,0,102.47,58.68Z"></path><path class="cls-6" d="M83.6,59.5a.68.68,0,0,0,.06-.37c0-.08,0-.16,0-.24a.31.31,0,0,0-.06-.13,1.65,1.65,0,0,0-.22-.24.29.29,0,0,0-.12-.07.3.3,0,0,1-.2-.15l0,0c0,.05,0,.08,0,.11s0,.06,0,.06a.46.46,0,0,0-.16.11l-.07,0a1.71,1.71,0,0,1-.18.2.62.62,0,0,0-.2.42,1.23,1.23,0,0,0,0,.38.37.37,0,0,0,.05.17,1.34,1.34,0,0,0,.27.31.6.6,0,0,1,.16.23h0a.26.26,0,0,0,.07.1l0-.08a2.33,2.33,0,0,1,.28-.26.61.61,0,0,0,.15-.13A1.52,1.52,0,0,0,83.6,59.5Z"></path><path class="cls-6" d="M26.53,62.82a.72.72,0,0,0,0-.38,1.57,1.57,0,0,0,0-.23.34.34,0,0,0-.05-.14l-.23-.24a.26.26,0,0,0-.11-.07.3.3,0,0,1-.21-.15l0,0s0,.07,0,.1,0,.06,0,.06-.1.08-.16.11l-.06,0a1.71,1.71,0,0,1-.18.2.65.65,0,0,0-.21.42,1.22,1.22,0,0,0,0,.38.48.48,0,0,0,.05.17,1.64,1.64,0,0,0,.27.32.5.5,0,0,1,.16.22h0l.06.11a.36.36,0,0,1,0-.09,2.16,2.16,0,0,1,.27-.25c.05,0,.12-.08.15-.14A2.06,2.06,0,0,0,26.53,62.82Z"></path><path class="cls-6" d="M110.14,46.22a1.07,1.07,0,0,0-.53,0l-.32.08a.44.44,0,0,0-.18.09,2.2,2.2,0,0,0-.3.31.37.37,0,0,0-.09.16.39.39,0,0,1-.18.28s0,0-.05,0h.14s.08,0,.09,0a1.06,1.06,0,0,0,.17.2s0,.06,0,.08a2.77,2.77,0,0,1,.29.22,1,1,0,0,0,.59.23,2.33,2.33,0,0,0,.53-.07.53.53,0,0,0,.22-.08,2.16,2.16,0,0,0,.42-.38.75.75,0,0,1,.29-.24h0a.5.5,0,0,0,.14-.1.19.19,0,0,1-.12,0,2.8,2.8,0,0,1-.38-.32c-.07-.06-.12-.15-.2-.19A2.39,2.39,0,0,0,110.14,46.22Z"></path><path class="cls-6" d="M106.56,39.7a1.52,1.52,0,0,0-.76-.06l-.45.12a.74.74,0,0,0-.27.12c-.15.14-.3.3-.44.45a.92.92,0,0,0-.13.24.51.51,0,0,1-.26.39l-.07.07.21,0s.12,0,.13,0a1,1,0,0,0,.24.29s0,.09.07.12a4.56,4.56,0,0,1,.42.31,1.35,1.35,0,0,0,.86.34,3.94,3.94,0,0,0,.76-.09.9.9,0,0,0,.32-.13,2.85,2.85,0,0,0,.6-.55,1,1,0,0,1,.42-.33h0a.94.94,0,0,0,.19-.14.44.44,0,0,1-.16-.06,3.58,3.58,0,0,1-.56-.47,1.43,1.43,0,0,0-.28-.27A3.49,3.49,0,0,0,106.56,39.7Z"></path><path class="cls-4" d="M105.35,47.21a2,2,0,0,0-1-.09c-.2.05-.41.09-.61.15a.85.85,0,0,0-.35.15,6.57,6.57,0,0,0-.59.59.81.81,0,0,0-.17.3.71.71,0,0,1-.36.52s0,0-.09.09a1.56,1.56,0,0,1,.26,0c.07,0,.17,0,.18.06s.21.25.31.38,0,.12.09.16a5.7,5.7,0,0,1,.55.42,1.7,1.7,0,0,0,1.12.46,4.34,4.34,0,0,0,1-.11,1.14,1.14,0,0,0,.42-.16,3.56,3.56,0,0,0,.8-.7,1.65,1.65,0,0,1,.56-.44h0a1.57,1.57,0,0,0,.26-.19.52.52,0,0,1-.22-.07,4.34,4.34,0,0,1-.72-.64,2.53,2.53,0,0,0-.37-.36A4.6,4.6,0,0,0,105.35,47.21Z"></path><path class="cls-7" d="M63.66,37a4.35,4.35,0,0,0-.7,2.14c0,.47,0,.94,0,1.4a2.15,2.15,0,0,0,.17.85A17,17,0,0,0,64.24,43a1.85,1.85,0,0,0,.61.54c.48.24.9.49,1,1a1.5,1.5,0,0,0,.17.26c.08-.25.12-.42.19-.58s.14-.35.23-.36a3.46,3.46,0,0,0,1-.48c.13-.06.31-.05.41-.13.43-.32.8-.71,1.25-1a3.8,3.8,0,0,0,1.63-2.24,9.3,9.3,0,0,0,.26-2.25,2.52,2.52,0,0,0-.16-1,7.91,7.91,0,0,0-1.24-2.11,3.56,3.56,0,0,1-.73-1.45v0a2.6,2.6,0,0,0-.29-.66,1.18,1.18,0,0,1-.28.44,10.87,10.87,0,0,1-1.84,1.26,5.43,5.43,0,0,0-1,.62A10.9,10.9,0,0,0,63.66,37Z"></path><path class="cls-4" d="M46.84,45.92A2.27,2.27,0,0,0,47.4,47c.18.18.36.36.55.52a1.18,1.18,0,0,0,.39.25,6.83,6.83,0,0,0,1,.21,1,1,0,0,0,.43,0,.91.91,0,0,1,.79,0s.08,0,.16,0l-.15-.28c0-.08-.08-.19-.05-.22a1.71,1.71,0,0,0,.21-.57c0-.06.1-.12.11-.19A5.7,5.7,0,0,1,51,45.9a2,2,0,0,0-.25-1.43,4.93,4.93,0,0,0-.77-.95,1.47,1.47,0,0,0-.45-.32,4.56,4.56,0,0,0-1.28-.34,2.09,2.09,0,0,1-.83-.28h0a1.4,1.4,0,0,0-.37-.14.6.6,0,0,1,.07.27,5.71,5.71,0,0,1-.21,1.14,2.64,2.64,0,0,0-.15.6A5.68,5.68,0,0,0,46.84,45.92Z"></path><path class="cls-6" d="M50.36,37.62a3.63,3.63,0,0,0,0,2c.11.39.23.78.37,1.16a1.86,1.86,0,0,0,.35.67,14.88,14.88,0,0,0,1.3,1.08,1.77,1.77,0,0,0,.65.31,1.47,1.47,0,0,1,1.12.63,1,1,0,0,0,.2.18c0-.23,0-.38,0-.53s0-.33.1-.36a3.15,3.15,0,0,0,.76-.64c.09-.08.24-.11.31-.2a12.79,12.79,0,0,1,.8-1.13,3.25,3.25,0,0,0,.8-2.24,8.23,8.23,0,0,0-.34-1.95,2.25,2.25,0,0,0-.39-.81,7.08,7.08,0,0,0-1.56-1.48,3.19,3.19,0,0,1-1-1l0,0a2.12,2.12,0,0,0-.41-.48,1.06,1.06,0,0,1-.12.43,9.5,9.5,0,0,1-1.22,1.48,4.61,4.61,0,0,0-.71.76A9.3,9.3,0,0,0,50.36,37.62Z"></path><path class="cls-3" d="M34.89,53.79a3.15,3.15,0,0,0,1.21,1.05c.3.13.61.27.92.38a1.64,1.64,0,0,0,.6.14A12.22,12.22,0,0,0,39,55.15a1.21,1.21,0,0,0,.53-.23,1.21,1.21,0,0,1,1-.34,1,1,0,0,0,.21,0l-.32-.29c-.07-.07-.19-.19-.17-.25a2.27,2.27,0,0,0,0-.78c0-.1.06-.21,0-.29-.08-.36-.24-.7-.29-1.06a2.58,2.58,0,0,0-1-1.65,7,7,0,0,0-1.4-.82,2.4,2.4,0,0,0-.71-.19,6,6,0,0,0-1.74.16,2.54,2.54,0,0,1-1.16,0h0a1.52,1.52,0,0,0-.52,0,.81.81,0,0,1,.21.3,6.66,6.66,0,0,1,.29,1.49A3.69,3.69,0,0,0,34,52,7.83,7.83,0,0,0,34.89,53.79Z"></path><path class="cls-6" d="M59.14,33.32a2.72,2.72,0,0,0-.45,1.36c0,.29,0,.59,0,.88a1.32,1.32,0,0,0,.11.53,9.91,9.91,0,0,0,.68,1,1.26,1.26,0,0,0,.39.34c.3.15.57.31.65.66a.64.64,0,0,0,.11.16c.05-.15.08-.26.12-.36s.09-.23.15-.23a2.5,2.5,0,0,0,.66-.31,1.12,1.12,0,0,0,.26-.08c.27-.2.51-.45.79-.63a2.38,2.38,0,0,0,1-1.41,6.15,6.15,0,0,0,.17-1.43,1.75,1.75,0,0,0-.1-.64,5.14,5.14,0,0,0-.79-1.33,2.22,2.22,0,0,1-.46-.92v0a1.44,1.44,0,0,0-.18-.42.75.75,0,0,1-.18.28,8,8,0,0,1-1.16.8,3.2,3.2,0,0,0-.65.39A6.63,6.63,0,0,0,59.14,33.32Z"></path><path class="cls-7" d="M44.37,36.67a2.7,2.7,0,0,0,.11,1.41c.11.27.22.54.35.8a1.31,1.31,0,0,0,.3.46c.32.24.66.46,1,.68a1.2,1.2,0,0,0,.48.17,1.07,1.07,0,0,1,.85.37.92.92,0,0,0,.16.12c0-.17,0-.28,0-.38s0-.24,0-.27c.23-.12.33-.34.5-.51s.16-.1.21-.17a9.09,9.09,0,0,1,.49-.86,2.35,2.35,0,0,0,.41-1.67,5.75,5.75,0,0,0-.39-1.37,1.72,1.72,0,0,0-.33-.55A5.46,5.46,0,0,0,47.31,34a2.19,2.19,0,0,1-.77-.67v0a1.66,1.66,0,0,0-.33-.32.7.7,0,0,1-.06.32,6.6,6.6,0,0,1-.77,1.15,4.19,4.19,0,0,0-.45.59A6.82,6.82,0,0,0,44.37,36.67Z"></path><path class="cls-6" d="M40.73,42.31a2.46,2.46,0,0,0-.17,1.36c.06.28.11.56.18.84a1.33,1.33,0,0,0,.2.49,11.1,11.1,0,0,0,.84.84,1,1,0,0,0,.43.25,1,1,0,0,1,.74.51.72.72,0,0,0,.13.14c0-.15,0-.26.05-.37s0-.22.1-.24a2.33,2.33,0,0,0,.57-.4c.07,0,.18-.07.24-.13a7.33,7.33,0,0,1,.63-.73,2.32,2.32,0,0,0,.72-1.53,5.87,5.87,0,0,0-.1-1.38,1.61,1.61,0,0,0-.22-.6,5.1,5.1,0,0,0-1-1.13,2.28,2.28,0,0,1-.6-.79v0a1.58,1.58,0,0,0-.26-.36.79.79,0,0,1-.11.29,6.22,6.22,0,0,1-1,1,3.26,3.26,0,0,0-.55.49A6.39,6.39,0,0,0,40.73,42.31Z"></path><path class="cls-3" d="M37.76,36.78A2.44,2.44,0,0,0,37.35,38c0,.27,0,.54,0,.81a1.09,1.09,0,0,0,.1.48c.19.32.4.62.62.92a1.19,1.19,0,0,0,.36.31c.27.14.52.29.59.6a.63.63,0,0,0,.1.15c0-.14.07-.24.11-.33s.08-.2.14-.21a2.19,2.19,0,0,0,.6-.28c.08,0,.18,0,.24-.07.25-.19.46-.42.72-.58a2.16,2.16,0,0,0,.94-1.29,5.58,5.58,0,0,0,.16-1.3,1.53,1.53,0,0,0-.1-.59,4.89,4.89,0,0,0-.72-1.22,2.18,2.18,0,0,1-.42-.83v0a1.46,1.46,0,0,0-.17-.38.82.82,0,0,1-.16.25,6.3,6.3,0,0,1-1.07.73,3.21,3.21,0,0,0-.59.36A6.38,6.38,0,0,0,37.76,36.78Z"></path><path class="cls-3" d="M72.42,36.26a2.47,2.47,0,0,0-.53,1.19c0,.27,0,.54-.06.81a1,1,0,0,0,0,.49,9.27,9.27,0,0,0,.53,1,1,1,0,0,0,.32.34.91.91,0,0,1,.53.65,1.14,1.14,0,0,0,.08.16,3.39,3.39,0,0,1,.15-.32c0-.07.1-.19.15-.2a1.75,1.75,0,0,0,.63-.22,1,1,0,0,0,.25,0c.26-.16.5-.37.77-.5a2.2,2.2,0,0,0,1.07-1.2,5.52,5.52,0,0,0,.28-1.28,1.68,1.68,0,0,0,0-.59,4.82,4.82,0,0,0-.6-1.28,2,2,0,0,1-.33-.88h0a1.34,1.34,0,0,0-.13-.4.69.69,0,0,1-.18.24,7.24,7.24,0,0,1-1.13.62,3.67,3.67,0,0,0-.63.3A6.42,6.42,0,0,0,72.42,36.26Z"></path><path class="cls-6" d="M83.5,32.63a2.48,2.48,0,0,0-.82,1,7,7,0,0,0-.27.77,1,1,0,0,0-.08.49A8.33,8.33,0,0,0,82.59,36a1,1,0,0,0,.22.41.91.91,0,0,1,.34.76,1.2,1.2,0,0,0,0,.17c.09-.11.15-.2.22-.27s.15-.16.2-.15a2.12,2.12,0,0,0,.67-.06c.08,0,.18,0,.25,0,.3-.09.58-.23.88-.3a2.23,2.23,0,0,0,1.34-.9,5.19,5.19,0,0,0,.61-1.17,1.4,1.4,0,0,0,.12-.58,4.35,4.35,0,0,0-.24-1.38,1.87,1.87,0,0,1-.1-.93v0a1.48,1.48,0,0,0,0-.42.67.67,0,0,1-.25.19,6.38,6.38,0,0,1-1.25.33,2.93,2.93,0,0,0-.68.14A6.19,6.19,0,0,0,83.5,32.63Z"></path><path class="cls-6" d="M97.45,34.57a2,2,0,0,0-.74.69c-.1.19-.2.37-.29.56a.87.87,0,0,0-.11.37,6.38,6.38,0,0,0,.07.87.87.87,0,0,0,.13.35.75.75,0,0,1,.17.64s0,.06,0,.14l.2-.19s.13-.11.17-.09a1.47,1.47,0,0,0,.51,0c.07,0,.13,0,.19,0,.24,0,.47-.1.71-.11a1.76,1.76,0,0,0,1.12-.52,4.53,4.53,0,0,0,.59-.84,1.23,1.23,0,0,0,.16-.43,3.76,3.76,0,0,0,0-1.11,1.53,1.53,0,0,1,0-.74h0a.93.93,0,0,0,0-.33.82.82,0,0,1-.2.12,5.44,5.44,0,0,1-1,.08,2.4,2.4,0,0,0-.54,0A4.77,4.77,0,0,0,97.45,34.57Z"></path><path class="cls-7" d="M89.47,33.21a1.86,1.86,0,0,0-.16,1c0,.2.07.41.11.61a.92.92,0,0,0,.14.37c.18.22.39.43.59.63a1,1,0,0,0,.32.2.76.76,0,0,1,.53.39s0,0,.09.1c0-.11,0-.19,0-.27s0-.16.07-.17a1.42,1.42,0,0,0,.43-.29c.06,0,.14,0,.18-.08a6,6,0,0,1,.48-.53,1.66,1.66,0,0,0,.56-1.1,4.34,4.34,0,0,0,0-1,1.15,1.15,0,0,0-.15-.44,3.39,3.39,0,0,0-.7-.86,1.52,1.52,0,0,1-.43-.59h0a1,1,0,0,0-.18-.28.47.47,0,0,1-.09.22,4.66,4.66,0,0,1-.72.68,2,2,0,0,0-.41.35A4.41,4.41,0,0,0,89.47,33.21Z"></path><path class="cls-6" d="M87.54,28.33a1.65,1.65,0,0,0-.25.85c0,.18,0,.36,0,.55a.83.83,0,0,0,.07.32c.14.21.29.41.45.61a.62.62,0,0,0,.25.2.64.64,0,0,1,.41.39.37.37,0,0,0,.07.1,1.63,1.63,0,0,1,.07-.23c0-.05,0-.14.08-.14a1.59,1.59,0,0,0,.41-.21.66.66,0,0,0,.15-.05c.16-.13.3-.29.48-.41a1.51,1.51,0,0,0,.6-.89,3.69,3.69,0,0,0,.07-.88,1.14,1.14,0,0,0-.08-.4,3.39,3.39,0,0,0-.51-.8,1.41,1.41,0,0,1-.31-.56h0a1,1,0,0,0-.13-.25.42.42,0,0,1-.1.17,4.1,4.1,0,0,1-.7.52,1.77,1.77,0,0,0-.39.26A4,4,0,0,0,87.54,28.33Z"></path><path class="cls-6" d="M86.39,24.45a1.28,1.28,0,0,0-.34.58,3.15,3.15,0,0,0-.09.42.57.57,0,0,0,0,.26,3.66,3.66,0,0,0,.21.55.48.48,0,0,0,.15.2.5.5,0,0,1,.23.38s0,0,0,.08l.1-.15s.06-.1.09-.09a.94.94,0,0,0,.34-.08s.1,0,.13,0,.29-.15.44-.21a1.1,1.1,0,0,0,.63-.55,3,3,0,0,0,.23-.65.81.81,0,0,0,0-.31,2.27,2.27,0,0,0-.23-.71,1.21,1.21,0,0,1-.12-.48h0a.85.85,0,0,0,0-.22.43.43,0,0,1-.11.12,3.41,3.41,0,0,1-.63.24,2.86,2.86,0,0,0-.35.12A3.13,3.13,0,0,0,86.39,24.45Z"></path><path class="cls-3" d="M91.6,44.22a1.7,1.7,0,0,0-.74.48c-.12.14-.23.27-.34.42a.92.92,0,0,0-.16.29,6.17,6.17,0,0,0-.07.74.84.84,0,0,0,0,.31.6.6,0,0,1,.06.55s0,.06,0,.12l.2-.13c.06,0,.13-.07.16,0a1.67,1.67,0,0,0,.44.11s.1.06.15.06c.21,0,.42,0,.63,0a1.51,1.51,0,0,0,1-.28,3.36,3.36,0,0,0,.64-.61,1.08,1.08,0,0,0,.21-.34A2.91,2.91,0,0,0,94,45a1.33,1.33,0,0,1,.14-.6v0a.83.83,0,0,0,.07-.27.44.44,0,0,1-.19.07,4.15,4.15,0,0,1-.86-.06,2,2,0,0,0-.47-.06A4.11,4.11,0,0,0,91.6,44.22Z"></path><path class="cls-4" d="M93.23,36.41a1.58,1.58,0,0,0-.76.36c-.12.12-.25.23-.37.36a.76.76,0,0,0-.18.26,5.43,5.43,0,0,0-.16.67.75.75,0,0,0,0,.3.53.53,0,0,1,0,.52s0,0,0,.11l.21-.1s.13,0,.16,0a1.32,1.32,0,0,0,.39.15.91.91,0,0,0,.14.07,5.73,5.73,0,0,1,.58.07,1.54,1.54,0,0,0,1-.15,3.7,3.7,0,0,0,.67-.51,1,1,0,0,0,.24-.29,2.86,2.86,0,0,0,.25-.85,1.31,1.31,0,0,1,.21-.56h0a.74.74,0,0,0,.11-.24.41.41,0,0,1-.19,0,3.64,3.64,0,0,1-.8-.15,2.41,2.41,0,0,0-.43-.1A3.73,3.73,0,0,0,93.23,36.41Z"></path><path class="cls-6" d="M95.74,40.74a1.48,1.48,0,0,0-.23.78c0,.17,0,.34,0,.51a.65.65,0,0,0,.08.31,5.34,5.34,0,0,0,.41.56.6.6,0,0,0,.23.19.63.63,0,0,1,.39.36s0,0,.06.09,0-.15.06-.21,0-.13.08-.13a1.69,1.69,0,0,0,.38-.19s.11,0,.15,0,.28-.27.44-.38a1.39,1.39,0,0,0,.56-.83,3.29,3.29,0,0,0,.06-.83.75.75,0,0,0-.07-.36,2.82,2.82,0,0,0-.48-.75,1.26,1.26,0,0,1-.28-.52h0a.88.88,0,0,0-.11-.24.59.59,0,0,1-.1.17,4.55,4.55,0,0,1-.65.48,1.81,1.81,0,0,0-.37.24A3.59,3.59,0,0,0,95.74,40.74Z"></path><path class="cls-6" d="M94.77,33.16a1.26,1.26,0,0,0-.36.5c0,.12-.07.24-.1.36a.49.49,0,0,0,0,.24,3.17,3.17,0,0,0,.15.5.45.45,0,0,0,.11.19.42.42,0,0,1,.18.35.2.2,0,0,0,0,.08c0-.05.06-.1.09-.13s.07-.08.09-.08a1.05,1.05,0,0,0,.31,0h.12c.13,0,.26-.12.4-.16a1,1,0,0,0,.59-.44,2.34,2.34,0,0,0,.25-.56.68.68,0,0,0,0-.28,2.19,2.19,0,0,0-.15-.65.93.93,0,0,1-.07-.43h0a1.36,1.36,0,0,0,0-.2.52.52,0,0,1-.11.1,3.74,3.74,0,0,1-.57.17,1.5,1.5,0,0,0-.32.08A2.86,2.86,0,0,0,94.77,33.16Z"></path><path class="cls-6" d="M95.91,29.13a1.09,1.09,0,0,0-.35.5c0,.12-.08.24-.11.36a.46.46,0,0,0,0,.23,4.13,4.13,0,0,0,.15.5.45.45,0,0,0,.11.19.45.45,0,0,1,.19.36.45.45,0,0,0,0,.08.92.92,0,0,1,.09-.13s.07-.08.09-.08a1.06,1.06,0,0,0,.31,0s.08,0,.12,0,.26-.12.4-.15a1.08,1.08,0,0,0,.6-.44,2.64,2.64,0,0,0,.24-.57.5.5,0,0,0,0-.27,2.12,2.12,0,0,0-.15-.65.93.93,0,0,1-.07-.43h0a.65.65,0,0,0,0-.2.31.31,0,0,1-.11.09,3.45,3.45,0,0,1-.57.18,1.07,1.07,0,0,0-.32.07A2.9,2.9,0,0,0,95.91,29.13Z"></path><path class="cls-6" d="M100.69,38.19a1.66,1.66,0,0,0-.7.55c-.1.15-.21.3-.3.45a.93.93,0,0,0-.13.31,6.09,6.09,0,0,0,0,.74.79.79,0,0,0,.08.3.59.59,0,0,1,.1.54.47.47,0,0,0,0,.12,1.5,1.5,0,0,1,.19-.14s.12-.09.15-.07a1.4,1.4,0,0,0,.45.06s.1.05.16.05a4.2,4.2,0,0,1,.62-.06,1.51,1.51,0,0,0,1-.39,3.46,3.46,0,0,0,.59-.67,1.09,1.09,0,0,0,.17-.36,2.9,2.9,0,0,0,.06-.93,1.42,1.42,0,0,1,.08-.62v0a1.17,1.17,0,0,0,0-.27.66.66,0,0,1-.19.09,5,5,0,0,1-.87,0,1.85,1.85,0,0,0-.47,0A4.44,4.44,0,0,0,100.69,38.19Z"></path><path class="cls-6" d="M102,34.63a1.27,1.27,0,0,0-.53.41c-.08.11-.16.23-.23.35a.67.67,0,0,0-.1.23,5.23,5.23,0,0,0,0,.56.6.6,0,0,0,.06.23.44.44,0,0,1,.08.41s0,0,0,.09l.14-.11s.1-.06.12,0a1.33,1.33,0,0,0,.34,0s.08,0,.12,0a3.73,3.73,0,0,1,.47,0,1.16,1.16,0,0,0,.77-.29,2.74,2.74,0,0,0,.45-.51.7.7,0,0,0,.12-.28,1.88,1.88,0,0,0,0-.71,1,1,0,0,1,.07-.47h0a.71.71,0,0,0,0-.21.37.37,0,0,1-.14.07,3.64,3.64,0,0,1-.66,0,1.46,1.46,0,0,0-.36,0A3,3,0,0,0,102,34.63Z"></path><path class="cls-7" d="M92.81,30.84a1.13,1.13,0,0,0-.08.6c0,.12,0,.25.09.37a.54.54,0,0,0,.09.22,3.15,3.15,0,0,0,.37.36.47.47,0,0,0,.19.12.45.45,0,0,1,.33.22l0,.06a1.57,1.57,0,0,1,0-.16s0-.1,0-.11.17-.12.25-.18.08,0,.1-.05.18-.23.28-.33a1,1,0,0,0,.32-.68,2.56,2.56,0,0,0-.05-.61.64.64,0,0,0-.1-.26,2.08,2.08,0,0,0-.44-.5.92.92,0,0,1-.27-.35h0a.67.67,0,0,0-.12-.16.35.35,0,0,1,0,.13,2.78,2.78,0,0,1-.42.42,1.7,1.7,0,0,0-.24.22A2.73,2.73,0,0,0,92.81,30.84Z"></path><path class="cls-6" d="M92.33,26.87a1.17,1.17,0,0,0-.39.44c0,.11-.09.23-.14.34a.57.57,0,0,0,0,.22,4,4,0,0,0,.09.5.72.72,0,0,0,.09.2.45.45,0,0,1,.14.36.28.28,0,0,0,0,.08,1.43,1.43,0,0,1,.11-.12s.07-.07.09-.06a1,1,0,0,0,.3,0l.11,0a3.11,3.11,0,0,1,.41-.11,1,1,0,0,0,.62-.37,2.14,2.14,0,0,0,.3-.51.77.77,0,0,0,.07-.26A2.29,2.29,0,0,0,94,27a.79.79,0,0,1,0-.43h0a.61.61,0,0,0,0-.19.31.31,0,0,1-.11.08,2.61,2.61,0,0,1-.57.1,2.91,2.91,0,0,0-.31,0A3.47,3.47,0,0,0,92.33,26.87Z"></path><path class="cls-6" d="M83,28a1.6,1.6,0,0,0-.43.77,5.07,5.07,0,0,0-.09.54.62.62,0,0,0,0,.33,5.32,5.32,0,0,0,.3.69.67.67,0,0,0,.19.25.61.61,0,0,1,.32.47s0,.05,0,.11.08-.15.12-.21.08-.12.12-.12a1.51,1.51,0,0,0,.43-.11.79.79,0,0,0,.17,0,6,6,0,0,1,.56-.3,1.54,1.54,0,0,0,.79-.74,4,4,0,0,0,.26-.85.89.89,0,0,0,0-.4,3.28,3.28,0,0,0-.32-.89,1.38,1.38,0,0,1-.18-.61h0a.88.88,0,0,0-.06-.28.5.5,0,0,1-.14.15,4.44,4.44,0,0,1-.8.36,2.85,2.85,0,0,0-.44.16A4.17,4.17,0,0,0,83,28Z"></path><path class="cls-4" d="M80,25a1.61,1.61,0,0,0-.42.78c0,.18-.07.35-.1.54a.73.73,0,0,0,0,.33,5.93,5.93,0,0,0,.29.69,1,1,0,0,0,.2.25.66.66,0,0,1,.32.47.82.82,0,0,0,0,.11c0-.09.08-.15.12-.21s.08-.13.11-.12a1.89,1.89,0,0,0,.44-.11c.06,0,.12,0,.17,0s.36-.22.55-.3a1.47,1.47,0,0,0,.79-.74,3.51,3.51,0,0,0,.27-.85,1.08,1.08,0,0,0,0-.4,2.57,2.57,0,0,0-.32-.89,1.51,1.51,0,0,1-.17-.61h0a1.27,1.27,0,0,0-.06-.28.67.67,0,0,1-.14.15,4.41,4.41,0,0,1-.8.35,1.92,1.92,0,0,0-.44.17A4.18,4.18,0,0,0,80,25Z"></path><path class="cls-4" d="M83.22,38.73a1.5,1.5,0,0,0-.5.65c-.06.15-.12.31-.17.47a.67.67,0,0,0,0,.31,5.06,5.06,0,0,0,.17.67.52.52,0,0,0,.14.25.61.61,0,0,1,.22.48s0,0,0,.1.09-.12.14-.17.09-.1.12-.09a1.46,1.46,0,0,0,.42,0s.11,0,.15,0c.19,0,.36-.14.55-.18a1.44,1.44,0,0,0,.84-.57,3.57,3.57,0,0,0,.37-.73.89.89,0,0,0,.07-.36,2.89,2.89,0,0,0-.15-.87,1.26,1.26,0,0,1-.07-.57v0a1.13,1.13,0,0,0,0-.26.79.79,0,0,1-.15.12,4.08,4.08,0,0,1-.78.21,1.82,1.82,0,0,0-.43.09A4,4,0,0,0,83.22,38.73Z"></path><path class="cls-6" d="M74.52,41.93a1.56,1.56,0,0,0-.3.76c0,.17,0,.34,0,.5a.78.78,0,0,0,0,.31,4.43,4.43,0,0,0,.36.59.6.6,0,0,0,.21.21.59.59,0,0,1,.35.39s0,.05,0,.1a1.56,1.56,0,0,1,.08-.21s.06-.12.09-.12a1.32,1.32,0,0,0,.39-.15s.11,0,.15,0a5,5,0,0,1,.47-.33,1.38,1.38,0,0,0,.63-.78,3.05,3.05,0,0,0,.14-.8.93.93,0,0,0,0-.37,2.77,2.77,0,0,0-.41-.78,1.28,1.28,0,0,1-.23-.54h0a1.09,1.09,0,0,0-.1-.25.44.44,0,0,1-.1.16,4.33,4.33,0,0,1-.69.41,2,2,0,0,0-.38.21A3.56,3.56,0,0,0,74.52,41.93Z"></path><path class="cls-6" d="M79,42.63a1.25,1.25,0,0,0-.22.55c0,.12,0,.24,0,.36a.53.53,0,0,0,0,.22,4.28,4.28,0,0,0,.26.42.43.43,0,0,0,.15.15.43.43,0,0,1,.25.28s0,0,0,.07a1,1,0,0,1,.06-.14s0-.09.06-.09a1.17,1.17,0,0,0,.28-.11s.08,0,.11,0a4,4,0,0,1,.33-.24,1,1,0,0,0,.46-.55,2.82,2.82,0,0,0,.1-.58.57.57,0,0,0,0-.26,2,2,0,0,0-.29-.57.8.8,0,0,1-.16-.38h0a.49.49,0,0,0-.06-.17.44.44,0,0,1-.08.11,4,4,0,0,1-.49.3,1.47,1.47,0,0,0-.28.14A2.78,2.78,0,0,0,79,42.63Z"></path><path class="cls-6" d="M75.86,46.14a1.6,1.6,0,0,0-.44.69c0,.16-.08.33-.11.49a.66.66,0,0,0,0,.31c.06.22.15.44.23.65a.7.7,0,0,0,.17.24c.14.13.27.25.26.45,0,0,0,.05,0,.11a2.2,2.2,0,0,1,.12-.19s.08-.11.11-.1a1.75,1.75,0,0,0,.41-.08c.05,0,.11,0,.16,0a5.05,5.05,0,0,1,.53-.24,1.44,1.44,0,0,0,.77-.64,4,4,0,0,0,.3-.77,1.11,1.11,0,0,0,0-.37,2.78,2.78,0,0,0-.24-.84,1.17,1.17,0,0,1-.12-.57h0A.78.78,0,0,0,78,45a.35.35,0,0,1-.14.13,3.22,3.22,0,0,1-.75.28,2.58,2.58,0,0,0-.42.13A4.44,4.44,0,0,0,75.86,46.14Z"></path><path class="cls-6" d="M87.44,37.89a1.44,1.44,0,0,0,.15.79c.09.15.17.3.26.44a.81.81,0,0,0,.21.24c.2.12.41.22.62.32a.73.73,0,0,0,.29.07.59.59,0,0,1,.51.15l.1.06a1.15,1.15,0,0,1,0-.22c0-.05,0-.13,0-.15a1.27,1.27,0,0,0,.24-.33s.09-.07.11-.11.13-.36.22-.52a1.36,1.36,0,0,0,.12-1,3.4,3.4,0,0,0-.32-.76,1.09,1.09,0,0,0-.23-.3,2.94,2.94,0,0,0-.77-.45,1.44,1.44,0,0,1-.49-.34h0a.83.83,0,0,0-.21-.16.41.41,0,0,1,0,.19,3.81,3.81,0,0,1-.35.7,2.4,2.4,0,0,0-.22.37A3.77,3.77,0,0,0,87.44,37.89Z"></path><path class="cls-6" d="M71.11,29.72a2.48,2.48,0,0,0-.52,1.2,7.36,7.36,0,0,0-.06.8,1.19,1.19,0,0,0,0,.5c.16.33.34.66.53,1a1.22,1.22,0,0,0,.33.35,1,1,0,0,1,.53.65s0,.08.08.16a2.69,2.69,0,0,1,.14-.32c0-.08.1-.2.16-.2a2.24,2.24,0,0,0,.63-.22c.08,0,.18,0,.24,0a7.94,7.94,0,0,1,.78-.5,2.25,2.25,0,0,0,1.06-1.2,5.53,5.53,0,0,0,.29-1.28,1.48,1.48,0,0,0,0-.59,4.43,4.43,0,0,0-.59-1.29,2,2,0,0,1-.34-.87v0a1.34,1.34,0,0,0-.13-.4.79.79,0,0,1-.19.25,6.43,6.43,0,0,1-1.13.62,3.23,3.23,0,0,0-.62.3A6.42,6.42,0,0,0,71.11,29.72Z"></path><path class="cls-7" d="M77.35,32.07a2.37,2.37,0,0,0-.19,1.28,7.05,7.05,0,0,0,.15.8,1.11,1.11,0,0,0,.17.47,9.7,9.7,0,0,0,.77.8,1.07,1.07,0,0,0,.4.26,1,1,0,0,1,.69.5s0,.06.12.13c0-.15,0-.25.05-.35s0-.21.1-.22a2.12,2.12,0,0,0,.55-.37c.07,0,.17-.06.23-.11.21-.22.38-.48.61-.68a2.15,2.15,0,0,0,.72-1.42,5.24,5.24,0,0,0-.06-1.31,1.62,1.62,0,0,0-.19-.56,4.56,4.56,0,0,0-.91-1.1,1.93,1.93,0,0,1-.55-.76v0a2.12,2.12,0,0,0-.23-.35.7.7,0,0,1-.12.28,6,6,0,0,1-.93.88,3.92,3.92,0,0,0-.53.45A6.34,6.34,0,0,0,77.35,32.07Z"></path><path class="cls-7" d="M69.56,23.2A2.38,2.38,0,0,0,69,24.39q0,.41-.06.81a1,1,0,0,0,0,.49,7,7,0,0,0,.53,1,1,1,0,0,0,.32.35.94.94,0,0,1,.53.65,1.14,1.14,0,0,0,.08.16,3.39,3.39,0,0,1,.15-.32c0-.08.1-.2.15-.2a2.24,2.24,0,0,0,.63-.22c.08,0,.18,0,.24,0,.27-.16.5-.37.78-.5a2.24,2.24,0,0,0,1.07-1.2,5.52,5.52,0,0,0,.28-1.28,1.48,1.48,0,0,0,0-.59,4.38,4.38,0,0,0-.59-1.28,2,2,0,0,1-.33-.88v0a1.38,1.38,0,0,0-.13-.39.72.72,0,0,1-.19.24,6.71,6.71,0,0,1-1.12.62,3.05,3.05,0,0,0-.63.3A5.84,5.84,0,0,0,69.56,23.2Z"></path><path class="cls-3" d="M75.69,23.77a1.67,1.67,0,0,0-.33.76c0,.17,0,.34,0,.51a.8.8,0,0,0,0,.31c.1.21.22.42.34.62a.7.7,0,0,0,.2.22.58.58,0,0,1,.34.41s0,0,0,.1a2.16,2.16,0,0,1,.09-.2c0-.05.07-.13.1-.13a1.12,1.12,0,0,0,.4-.14.45.45,0,0,0,.16,0c.16-.1.31-.23.49-.32a1.4,1.4,0,0,0,.68-.76,3.65,3.65,0,0,0,.17-.81,1,1,0,0,0,0-.38,2.82,2.82,0,0,0-.37-.81,1.36,1.36,0,0,1-.22-.55v0a1,1,0,0,0-.08-.25.44.44,0,0,1-.12.15,4.17,4.17,0,0,1-.72.4,2.46,2.46,0,0,0-.4.19A4,4,0,0,0,75.69,23.77Z"></path><path class="cls-6" d="M76.68,27.94a1.33,1.33,0,0,0-.35.59c0,.14-.06.28-.08.42a.57.57,0,0,0,0,.26q.09.27.21.54a.75.75,0,0,0,.15.2.47.47,0,0,1,.24.37.29.29,0,0,0,0,.09l.1-.16s.06-.1.09-.1a.94.94,0,0,0,.34-.08s.1,0,.13,0,.29-.16.44-.22a1.16,1.16,0,0,0,.63-.56,3.58,3.58,0,0,0,.23-.65.81.81,0,0,0,0-.31,2.27,2.27,0,0,0-.23-.71,1,1,0,0,1-.12-.47h0a.79.79,0,0,0,0-.22.32.32,0,0,1-.11.12,3.61,3.61,0,0,1-.63.26,1.38,1.38,0,0,0-.34.12A3.17,3.17,0,0,0,76.68,27.94Z"></path><path class="cls-6" d="M100.62,54.2a1.88,1.88,0,0,0-.7-.7c-.18-.09-.36-.19-.55-.27a1,1,0,0,0-.37-.11,6,6,0,0,0-.84.08.8.8,0,0,0-.34.11.72.72,0,0,1-.61.17h-.14l.19.19s.1.12.09.16a1.61,1.61,0,0,0,0,.49c0,.06,0,.12,0,.18,0,.22.12.44.14.66A1.63,1.63,0,0,0,98,56.23a4.65,4.65,0,0,0,.83.56,1.33,1.33,0,0,0,.44.14,3.57,3.57,0,0,0,1.08,0,1.69,1.69,0,0,1,.71,0h0a1.73,1.73,0,0,0,.32,0,.59.59,0,0,1-.12-.2,4.73,4.73,0,0,1-.12-.93,2.12,2.12,0,0,0,0-.51A4.4,4.4,0,0,0,100.62,54.2Z"></path><path class="cls-6" d="M98.17,57.3a1.62,1.62,0,0,0-.6-.59l-.47-.23a.59.59,0,0,0-.31-.09,5.51,5.51,0,0,0-.71.06.72.72,0,0,0-.29.1.62.62,0,0,1-.52.15.47.47,0,0,0-.12,0l.16.16s.09.11.08.14a1.41,1.41,0,0,0,0,.41c0,.05,0,.11,0,.15a5.78,5.78,0,0,1,.12.57,1.36,1.36,0,0,0,.46.9,4,4,0,0,0,.71.47,1.09,1.09,0,0,0,.36.12,3.15,3.15,0,0,0,.92,0,1.39,1.39,0,0,1,.61,0h0a.84.84,0,0,0,.27,0,.54.54,0,0,1-.1-.16,4.17,4.17,0,0,1-.1-.8,1.53,1.53,0,0,0,0-.43A3.92,3.92,0,0,0,98.17,57.3Z"></path><path class="cls-6" d="M87.19,41.69a1,1,0,0,0-.08.57c0,.12,0,.23.07.35a.42.42,0,0,0,.08.21,3.73,3.73,0,0,0,.34.35.42.42,0,0,0,.18.11.41.41,0,0,1,.3.22l.06.06c0-.07,0-.11,0-.16s0-.09,0-.1.16-.11.25-.16l.09,0a2.68,2.68,0,0,1,.28-.3,1,1,0,0,0,.31-.64,2.3,2.3,0,0,0,0-.58.81.81,0,0,0-.08-.25,2.32,2.32,0,0,0-.41-.48.88.88,0,0,1-.25-.33h0a.42.42,0,0,0-.11-.15.21.21,0,0,1,0,.12,2.11,2.11,0,0,1-.4.39,1.59,1.59,0,0,0-.24.2A2.79,2.79,0,0,0,87.19,41.69Z"></path><path class="cls-6" d="M91,41.05a1.24,1.24,0,0,0-.3.5c0,.12-.05.24-.07.35a.54.54,0,0,0,0,.22,3.66,3.66,0,0,0,.18.46.66.66,0,0,0,.12.17.39.39,0,0,1,.2.31.13.13,0,0,0,0,.07l.08-.13s0-.08.08-.08a1,1,0,0,0,.29-.06h.11a2.53,2.53,0,0,1,.37-.18,1,1,0,0,0,.53-.48,2.38,2.38,0,0,0,.19-.55.57.57,0,0,0,0-.26,2.39,2.39,0,0,0-.19-.59.85.85,0,0,1-.1-.4h0a.52.52,0,0,0,0-.18.43.43,0,0,1-.1.09,2.81,2.81,0,0,1-.53.22,1,1,0,0,0-.29.1A3.06,3.06,0,0,0,91,41.05Z"></path><path class="cls-6" d="M79,37.74a1.55,1.55,0,0,0-.47.65c0,.16-.11.32-.15.48a.82.82,0,0,0,0,.31,4.81,4.81,0,0,0,.18.65.79.79,0,0,0,.15.25.57.57,0,0,1,.24.46s0,.05,0,.11l.13-.18s.09-.1.12-.1a1.1,1.1,0,0,0,.41,0c.05,0,.11,0,.16,0s.35-.16.53-.21a1.37,1.37,0,0,0,.8-.58,3.34,3.34,0,0,0,.35-.74.87.87,0,0,0,0-.36,2.54,2.54,0,0,0-.18-.85,1.26,1.26,0,0,1-.09-.57h0a1.14,1.14,0,0,0,0-.26.35.35,0,0,1-.15.12,3.74,3.74,0,0,1-.76.24,1.43,1.43,0,0,0-.42.1A3.94,3.94,0,0,0,79,37.74Z"></path><path class="cls-6" d="M78.23,49.2a1.22,1.22,0,0,0-.46.47c-.06.12-.12.24-.17.36a.73.73,0,0,0-.07.24,5,5,0,0,0,.07.54.73.73,0,0,0,.09.22.44.44,0,0,1,.13.39.78.78,0,0,1,0,.09l.13-.13s.08-.07.1-.06a1.29,1.29,0,0,0,.34,0s.08,0,.12,0a3.63,3.63,0,0,1,.45-.1,1.13,1.13,0,0,0,.71-.38,2.61,2.61,0,0,0,.36-.55.66.66,0,0,0,.09-.28,2.29,2.29,0,0,0,0-.69.9.9,0,0,1,0-.46h0a.76.76,0,0,0,0-.21.57.57,0,0,1-.13.08,3.29,3.29,0,0,1-.64.1,1.27,1.27,0,0,0-.34,0A3.18,3.18,0,0,0,78.23,49.2Z"></path><path class="cls-6" d="M66.11,21.7a1.64,1.64,0,0,0-.2.8c0,.17,0,.35,0,.51a.75.75,0,0,0,.08.31,5.89,5.89,0,0,0,.44.55.63.63,0,0,0,.24.19.57.57,0,0,1,.4.35s0,0,.07.09a1.16,1.16,0,0,1,.06-.22c0-.05,0-.13.07-.13a1.46,1.46,0,0,0,.37-.2s.11,0,.15-.06.27-.28.43-.4a1.35,1.35,0,0,0,.54-.86,3.79,3.79,0,0,0,0-.83.91.91,0,0,0-.09-.36,2.71,2.71,0,0,0-.51-.74,1.2,1.2,0,0,1-.3-.52h0a.84.84,0,0,0-.12-.23.56.56,0,0,1-.09.17,4.56,4.56,0,0,1-.64.5,2.53,2.53,0,0,0-.36.25A4.24,4.24,0,0,0,66.11,21.7Z"></path><path class="cls-4" d="M63.24,51.45a1.83,1.83,0,0,0-.44.85c0,.2-.06.4-.08.59a.92.92,0,0,0,0,.37,7,7,0,0,0,.35.73.82.82,0,0,0,.22.27.69.69,0,0,1,.36.5s0,.05,0,.12c.05-.1.08-.17.12-.24s.08-.13.12-.13a1.56,1.56,0,0,0,.48-.14.57.57,0,0,0,.18,0c.2-.1.38-.25.59-.33a1.7,1.7,0,0,0,.83-.84,4.28,4.28,0,0,0,.26-.93,1.24,1.24,0,0,0,0-.43,3.4,3.4,0,0,0-.39-1,1.45,1.45,0,0,1-.2-.65h0a1,1,0,0,0-.08-.3.55.55,0,0,1-.14.17,4.86,4.86,0,0,1-.86.41,2.46,2.46,0,0,0-.47.2A4.53,4.53,0,0,0,63.24,51.45Z"></path><path class="cls-4" d="M73.43,50.5a1.51,1.51,0,0,0-.67.39c-.1.12-.21.24-.31.37a.64.64,0,0,0-.15.25,4.49,4.49,0,0,0-.1.64.61.61,0,0,0,0,.27.56.56,0,0,1,0,.49.56.56,0,0,0,0,.1l.18-.11s.12,0,.14,0a1.36,1.36,0,0,0,.38.11s.09.05.14.06a4.87,4.87,0,0,1,.54,0,1.35,1.35,0,0,0,.93-.22,3.54,3.54,0,0,0,.59-.51.91.91,0,0,0,.19-.29,2.49,2.49,0,0,0,.17-.81,1.31,1.31,0,0,1,.15-.53h0a1,1,0,0,0,.08-.23.41.41,0,0,1-.18,0,3.82,3.82,0,0,1-.75-.08,2.07,2.07,0,0,0-.41-.07A4.08,4.08,0,0,0,73.43,50.5Z"></path><path class="cls-6" d="M62.41,46.53a1.3,1.3,0,0,0-.23.62c0,.14,0,.28,0,.42a1.09,1.09,0,0,0,0,.25,4.66,4.66,0,0,0,.3.47.44.44,0,0,0,.17.16c.14.08.26.15.29.32,0,0,0,0,0,.07l.07-.17s0-.1.07-.1a1.07,1.07,0,0,0,.31-.13l.13,0a3.27,3.27,0,0,1,.37-.28,1.16,1.16,0,0,0,.51-.65,2.93,2.93,0,0,0,.1-.67.72.72,0,0,0,0-.29,2,2,0,0,0-.34-.63,1.07,1.07,0,0,1-.19-.44h0a1.07,1.07,0,0,0-.07-.19.6.6,0,0,1-.09.13,3.94,3.94,0,0,1-.55.35,1.81,1.81,0,0,0-.31.18A3.42,3.42,0,0,0,62.41,46.53Z"></path><path class="cls-6" d="M42.73,50.13a1.57,1.57,0,0,0,.57.6l.45.25a.88.88,0,0,0,.3.1c.24,0,.48,0,.71,0A.66.66,0,0,0,45,51a.62.62,0,0,1,.52-.13h.12a.73.73,0,0,1-.15-.17s-.09-.1-.08-.13a1.39,1.39,0,0,0,0-.41s0-.1,0-.14a3.83,3.83,0,0,1-.09-.56,1.37,1.37,0,0,0-.43-.9,3.37,3.37,0,0,0-.68-.49,1.05,1.05,0,0,0-.35-.13,3,3,0,0,0-.9,0,1.2,1.2,0,0,1-.6,0h0a1.31,1.31,0,0,0-.27,0,.46.46,0,0,1,.09.17,3.38,3.38,0,0,1,.07.78,2.07,2.07,0,0,0,0,.43A4.14,4.14,0,0,0,42.73,50.13Z"></path><path class="cls-6" d="M47.39,51.18a1.35,1.35,0,0,0,.5.48l.4.18a.77.77,0,0,0,.26.07,5.93,5.93,0,0,0,.59-.07.79.79,0,0,0,.23-.09.53.53,0,0,1,.43-.14h.1l-.14-.13s-.08-.09-.07-.11a1,1,0,0,0,0-.35s0-.08,0-.12-.09-.31-.11-.47a1.15,1.15,0,0,0-.41-.73,3.3,3.3,0,0,0-.59-.38.91.91,0,0,0-.31-.09,2.44,2.44,0,0,0-.76.05,1.2,1.2,0,0,1-.5,0h0a.91.91,0,0,0-.23,0,.38.38,0,0,1,.09.13,3.63,3.63,0,0,1,.1.66,2.09,2.09,0,0,0,0,.36A3,3,0,0,0,47.39,51.18Z"></path><path class="cls-7" d="M30.44,62a2,2,0,0,0,.81-.61,6,6,0,0,0,.36-.52.85.85,0,0,0,.16-.35,5.89,5.89,0,0,0,0-.84.69.69,0,0,0-.08-.35.68.68,0,0,1-.1-.63s0-.06,0-.13l-.23.16c-.05,0-.14.09-.18.07a1.69,1.69,0,0,0-.5-.08c-.06,0-.13-.06-.19-.06a5.52,5.52,0,0,1-.71,0,1.82,1.82,0,0,0-1.18.41,4.5,4.5,0,0,0-.68.76,1,1,0,0,0-.21.41,3.51,3.51,0,0,0-.1,1.07,1.54,1.54,0,0,1-.11.71h0a1.23,1.23,0,0,0-.07.32.62.62,0,0,1,.22-.1,5.57,5.57,0,0,1,1,0,2.48,2.48,0,0,0,.54,0A5,5,0,0,0,30.44,62Z"></path><path class="cls-7" d="M48.51,55.36a1,1,0,0,0,.46.31l.33.1a.75.75,0,0,0,.21,0,3.81,3.81,0,0,0,.45-.13.46.46,0,0,0,.17-.09.4.4,0,0,1,.32-.16l.07,0a.62.62,0,0,1-.12-.08s-.07-.06-.07-.08a.63.63,0,0,0,0-.27s0-.07,0-.1a3.65,3.65,0,0,1-.14-.35.92.92,0,0,0-.41-.52,2.91,2.91,0,0,0-.51-.22.54.54,0,0,0-.25,0,2.07,2.07,0,0,0-.59.12,1.06,1.06,0,0,1-.39.06h0a.5.5,0,0,0-.17,0,.24.24,0,0,1,.08.09,2.66,2.66,0,0,1,.16.5,1.2,1.2,0,0,0,.08.27A2.37,2.37,0,0,0,48.51,55.36Z"></path><path class="cls-6" d="M34.23,59.08a1.09,1.09,0,0,0,.48-.33l.22-.29a.58.58,0,0,0,.1-.19,3.91,3.91,0,0,0,0-.49.48.48,0,0,0,0-.2.42.42,0,0,1,0-.36.17.17,0,0,0,0-.08l-.13.09s-.09.05-.11,0a.94.94,0,0,0-.28-.06s-.07,0-.11,0-.27,0-.41,0a1,1,0,0,0-.68.2,2.33,2.33,0,0,0-.41.42.65.65,0,0,0-.13.23,1.8,1.8,0,0,0-.08.61.9.9,0,0,1-.08.4h0a.58.58,0,0,0,0,.18.31.31,0,0,1,.12-.05,2.72,2.72,0,0,1,.57,0,1.71,1.71,0,0,0,.31,0A2.92,2.92,0,0,0,34.23,59.08Z"></path><path class="cls-4" d="M23.42,63.75A1.36,1.36,0,0,0,24,63.4c.1-.11.21-.21.3-.33a.55.55,0,0,0,.14-.23,5.86,5.86,0,0,0,.1-.58.66.66,0,0,0,0-.25.48.48,0,0,1,0-.45.64.64,0,0,0,0-.09l-.17.09c-.05,0-.11,0-.14,0a1.33,1.33,0,0,0-.34-.1s-.08-.05-.12-.05-.34,0-.51,0a1.25,1.25,0,0,0-.85.19,2.4,2.4,0,0,0-.55.46.71.71,0,0,0-.18.27,2.28,2.28,0,0,0-.17.74,1,1,0,0,1-.15.48h0a.52.52,0,0,0-.07.21l.16-.05a4.21,4.21,0,0,1,.69.09,2.41,2.41,0,0,0,.37.07A3.83,3.83,0,0,0,23.42,63.75Z"></path><path class="cls-4" d="M37.27,59.7a1.49,1.49,0,0,0,.08-.72c0-.14-.06-.28-.1-.43a.77.77,0,0,0-.1-.25,5.4,5.4,0,0,0-.42-.41.5.5,0,0,0-.22-.13.47.47,0,0,1-.37-.25l-.07-.07c0,.08,0,.14,0,.19s0,.12,0,.13a1.24,1.24,0,0,0-.28.22s-.09,0-.12.07a4.08,4.08,0,0,1-.31.39,1.27,1.27,0,0,0-.35.81A2.47,2.47,0,0,0,35,60a.64.64,0,0,0,.11.3,2.47,2.47,0,0,0,.5.57,1.14,1.14,0,0,1,.3.4h0a1.27,1.27,0,0,0,.13.19.31.31,0,0,1,.06-.16,3.81,3.81,0,0,1,.47-.52c.09-.09.21-.15.27-.26A3.73,3.73,0,0,0,37.27,59.7Z"></path><path class="cls-6" d="M24.13,55.36a1.44,1.44,0,0,0,.7.16l.45,0a.56.56,0,0,0,.26-.07,5.6,5.6,0,0,0,.49-.36.64.64,0,0,0,.16-.2.49.49,0,0,1,.3-.33s0,0,.08-.06l-.19,0s-.11,0-.12-.06a.85.85,0,0,0-.17-.31s0-.09-.05-.12-.25-.23-.35-.36a1.22,1.22,0,0,0-.75-.44,3.45,3.45,0,0,0-.72,0,.88.88,0,0,0-.32.07,2.59,2.59,0,0,0-.65.42,1.06,1.06,0,0,1-.45.25h0a.63.63,0,0,0-.2.1.39.39,0,0,1,.14.08,2.75,2.75,0,0,1,.44.52,1.7,1.7,0,0,0,.23.3A3.81,3.81,0,0,0,24.13,55.36Z"></path><path class="cls-6" d="M27,47.82a1.34,1.34,0,0,0,.56.44l.42.15a.65.65,0,0,0,.27.05c.2,0,.4-.08.6-.13a.49.49,0,0,0,.23-.11.56.56,0,0,1,.43-.17s0,0,.09,0l-.15-.12s-.09-.08-.08-.11a1,1,0,0,0,0-.35.57.57,0,0,0,0-.13,4.34,4.34,0,0,1-.16-.47,1.17,1.17,0,0,0-.48-.71,2.43,2.43,0,0,0-.64-.33.71.71,0,0,0-.32-.07,2.51,2.51,0,0,0-.77.1,1,1,0,0,1-.51,0h0a.89.89,0,0,0-.23,0,.41.41,0,0,1,.1.13,2.91,2.91,0,0,1,.17.66,1.1,1.1,0,0,0,.07.36A3.27,3.27,0,0,0,27,47.82Z"></path><path class="cls-6" d="M69.59,19.09a1.11,1.11,0,0,0-.24.53c0,.13,0,.25,0,.37a.53.53,0,0,0,0,.22,3.81,3.81,0,0,0,.23.45.43.43,0,0,0,.14.16.41.41,0,0,1,.24.3s0,0,0,.07l.07-.14s0-.09.07-.09a.91.91,0,0,0,.29-.1s.08,0,.11,0,.23-.16.36-.22a1,1,0,0,0,.49-.53,2.34,2.34,0,0,0,.14-.58.62.62,0,0,0,0-.27,2.21,2.21,0,0,0-.26-.59,1,1,0,0,1-.14-.4h0a1.06,1.06,0,0,0-.06-.19.24.24,0,0,1-.09.11,2.49,2.49,0,0,1-.51.27,1.3,1.3,0,0,0-.29.14A2.92,2.92,0,0,0,69.59,19.09Z"></path><path class="cls-6" d="M74.4,20.28a1.19,1.19,0,0,0-.28.6,3,3,0,0,0,0,.41.57.57,0,0,0,0,.26,3.4,3.4,0,0,0,.26.5.56.56,0,0,0,.16.18c.13.09.25.17.27.34,0,0,0,0,0,.08l.07-.16s.06-.1.09-.1a.94.94,0,0,0,.32-.11.59.59,0,0,0,.13,0,3.34,3.34,0,0,1,.4-.25,1.13,1.13,0,0,0,.55-.61,2.81,2.81,0,0,0,.16-.65.76.76,0,0,0,0-.3,2.29,2.29,0,0,0-.29-.66.91.91,0,0,1-.16-.45h0a.73.73,0,0,0-.06-.21.4.4,0,0,1-.1.12,2.93,2.93,0,0,1-.58.31,1.66,1.66,0,0,0-.33.15A3.34,3.34,0,0,0,74.4,20.28Z"></path><path class="cls-6" d="M84,23a1.14,1.14,0,0,0-.24.51l0,.34a.49.49,0,0,0,0,.21,2.78,2.78,0,0,0,.22.42.38.38,0,0,0,.13.15.38.38,0,0,1,.22.29s0,0,0,.06l.06-.13s0-.08.07-.08a1.22,1.22,0,0,0,.27-.09l.1,0a3.13,3.13,0,0,1,.34-.21,1,1,0,0,0,.46-.51,1.94,1.94,0,0,0,.13-.54.53.53,0,0,0,0-.25,1.73,1.73,0,0,0-.24-.56.75.75,0,0,1-.13-.37h0a.55.55,0,0,0-.05-.17.39.39,0,0,1-.08.1,2.54,2.54,0,0,1-.49.26,1.31,1.31,0,0,0-.27.12A2.9,2.9,0,0,0,84,23Z"></path><path class="cls-6" d="M79.31,21.53a1.22,1.22,0,0,0-.25.54c0,.12,0,.24,0,.36a.44.44,0,0,0,0,.23,3.19,3.19,0,0,0,.23.45.43.43,0,0,0,.14.16.41.41,0,0,1,.24.3s0,0,0,.07l.07-.14s0-.09.08-.09a.94.94,0,0,0,.28-.1s.09,0,.12,0,.23-.16.35-.22a1,1,0,0,0,.5-.54,2.24,2.24,0,0,0,.14-.58.62.62,0,0,0,0-.27,2.21,2.21,0,0,0-.26-.59.77.77,0,0,1-.14-.4h0a.53.53,0,0,0,0-.18.48.48,0,0,1-.09.11,3.63,3.63,0,0,1-.52.27,2,2,0,0,0-.29.13A3.36,3.36,0,0,0,79.31,21.53Z"></path><path class="cls-4" d="M64.49,28.08a2.48,2.48,0,0,0-.52,1.2c0,.26-.06.53-.07.8a1.38,1.38,0,0,0,.05.5,10.21,10.21,0,0,0,.53,1,1,1,0,0,0,.32.34,1,1,0,0,1,.54.66s0,.07.08.15c.06-.13.09-.23.14-.32s.1-.19.16-.19a2.36,2.36,0,0,0,.63-.22c.07,0,.17,0,.24,0,.26-.16.5-.37.78-.51a2.2,2.2,0,0,0,1.06-1.19,5.53,5.53,0,0,0,.29-1.28,1.51,1.51,0,0,0,0-.6,4.5,4.5,0,0,0-.59-1.28,2.14,2.14,0,0,1-.34-.87v0a1.7,1.7,0,0,0-.13-.4.75.75,0,0,1-.19.24,5.9,5.9,0,0,1-1.13.62,3.08,3.08,0,0,0-.63.31A6.69,6.69,0,0,0,64.49,28.08Z"></path><path class="cls-3" d="M54.2,29a2.3,2.3,0,0,0,0,1.3c.09.26.17.51.28.76a1.15,1.15,0,0,0,.26.43,8.37,8.37,0,0,0,.89.68,1.21,1.21,0,0,0,.44.18,1,1,0,0,1,.76.38l.15.11a2.18,2.18,0,0,1,0-.35c0-.08,0-.22.06-.24.21-.1.32-.3.48-.45s.16-.08.2-.15c.17-.25.3-.53.49-.77a2.13,2.13,0,0,0,.46-1.52,5.26,5.26,0,0,0-.29-1.28,1.55,1.55,0,0,0-.28-.52A4.44,4.44,0,0,0,57,26.65a2,2,0,0,1-.67-.66h0a1.07,1.07,0,0,0-.29-.31A.72.72,0,0,1,56,26a6.75,6.75,0,0,1-.76,1,3.16,3.16,0,0,0-.45.53A6.13,6.13,0,0,0,54.2,29Z"></path><path class="cls-4" d="M47.91,29.83A2.2,2.2,0,0,0,47.83,31c.06.24.12.47.19.7a1.06,1.06,0,0,0,.19.4,7.85,7.85,0,0,0,.74.67.93.93,0,0,0,.38.2.84.84,0,0,1,.64.4s.06,0,.12.11c0-.13,0-.22,0-.31s0-.19.07-.21a2.09,2.09,0,0,0,.47-.36c.06-.05.15-.06.19-.12a7.84,7.84,0,0,1,.5-.64,2,2,0,0,0,.54-1.32,5.2,5.2,0,0,0-.15-1.16,1.33,1.33,0,0,0-.21-.49,4.21,4.21,0,0,0-.88-.91,1.76,1.76,0,0,1-.55-.64h0a1.14,1.14,0,0,0-.23-.3.53.53,0,0,1-.08.25,5.58,5.58,0,0,1-.77.85,2.91,2.91,0,0,0-.43.43A5.68,5.68,0,0,0,47.91,29.83Z"></path><path class="cls-6" d="M51,24.35a1.84,1.84,0,0,0-.12,1c0,.2.07.4.13.6a.83.83,0,0,0,.14.35,6.79,6.79,0,0,0,.6.6.81.81,0,0,0,.31.19.74.74,0,0,1,.53.36s0,.05.09.1a1.43,1.43,0,0,1,0-.26c0-.06,0-.16.07-.18s.27-.19.41-.29.13,0,.17-.08a4.65,4.65,0,0,1,.45-.53,1.7,1.7,0,0,0,.52-1.09,4.21,4.21,0,0,0-.07-1,1.14,1.14,0,0,0-.16-.42,3.42,3.42,0,0,0-.71-.81A1.57,1.57,0,0,1,53,22.3h0a1.27,1.27,0,0,0-.18-.27.6.6,0,0,1-.09.22,4.86,4.86,0,0,1-.68.68,2.71,2.71,0,0,0-.4.35A4.57,4.57,0,0,0,51,24.35Z"></path><path class="cls-6" d="M41.6,31.19a2,2,0,0,0-.13,1c0,.2.08.4.13.6a1,1,0,0,0,.15.35,6.79,6.79,0,0,0,.6.6.85.85,0,0,0,.3.19.7.7,0,0,1,.53.36l.1.1c0-.11,0-.19,0-.26s0-.16.07-.18.28-.19.42-.29.12,0,.16-.08a6,6,0,0,1,.46-.53,1.7,1.7,0,0,0,.52-1.09,4.81,4.81,0,0,0-.07-1,1.14,1.14,0,0,0-.16-.42,3.42,3.42,0,0,0-.71-.81,1.46,1.46,0,0,1-.43-.57h0a1.81,1.81,0,0,0-.18-.27.6.6,0,0,1-.09.22,4.44,4.44,0,0,1-.69.68c-.12.12-.3.21-.39.35A4.57,4.57,0,0,0,41.6,31.19Z"></path><path class="cls-6" d="M44.5,27.41a1.33,1.33,0,0,0,0,.74c.05.15.1.29.16.44a1,1,0,0,0,.14.24,6.26,6.26,0,0,0,.51.39.91.91,0,0,0,.25.11.53.53,0,0,1,.44.22s0,0,.08.06a1.33,1.33,0,0,1,0-.2c0-.05,0-.12,0-.14s.18-.17.28-.25.09-.05.11-.08a3.35,3.35,0,0,1,.29-.44,1.32,1.32,0,0,0,.27-.87,3.66,3.66,0,0,0-.16-.73.87.87,0,0,0-.16-.3,2.68,2.68,0,0,0-.62-.54,1,1,0,0,1-.38-.38h0a.69.69,0,0,0-.17-.17.32.32,0,0,1,0,.16,2.69,2.69,0,0,1-.44.58c-.08.11-.2.19-.25.3A3.66,3.66,0,0,0,44.5,27.41Z"></path><path class="cls-4" d="M36.18,47.4a2.41,2.41,0,0,0,.81,1c.23.13.45.27.68.39a1.15,1.15,0,0,0,.45.18c.36,0,.72,0,1.08,0a1.11,1.11,0,0,0,.44-.12,1,1,0,0,1,.8-.16.9.9,0,0,0,.17,0l-.22-.26c0-.06-.13-.16-.1-.21a2.13,2.13,0,0,0,.08-.61c0-.08.06-.15.06-.22a8.43,8.43,0,0,1-.11-.86,2.07,2.07,0,0,0-.59-1.39,5.62,5.62,0,0,0-1-.79,1.56,1.56,0,0,0-.53-.22A4.49,4.49,0,0,0,36.83,44a2.12,2.12,0,0,1-.91-.1h0a1.34,1.34,0,0,0-.4-.07.64.64,0,0,1,.13.26,6,6,0,0,1,.06,1.2,2.75,2.75,0,0,0,0,.64A5.68,5.68,0,0,0,36.18,47.4Z"></path><path class="cls-4" d="M42.71,55.4a2.52,2.52,0,0,0,1,.71c.25.07.5.15.76.21a1.33,1.33,0,0,0,.48,0,8.7,8.7,0,0,0,1-.29,1.13,1.13,0,0,0,.4-.23,1,1,0,0,1,.72-.36.33.33,0,0,0,.17,0L47,55.26c-.06,0-.16-.13-.16-.18a2,2,0,0,0-.08-.61c0-.08,0-.16,0-.23-.1-.27-.25-.53-.33-.8a2.17,2.17,0,0,0-.94-1.2,6.54,6.54,0,0,0-1.18-.5,1.58,1.58,0,0,0-.57-.08,4.4,4.4,0,0,0-1.34.29,2.2,2.2,0,0,1-.9.14h0a1.39,1.39,0,0,0-.41,0,.63.63,0,0,1,.19.21,5.09,5.09,0,0,1,.38,1.14,3.86,3.86,0,0,0,.17.63A6.09,6.09,0,0,0,42.71,55.4Z"></path><path class="cls-6" d="M33.69,41a1.88,1.88,0,0,0,.48.86l.45.41a1,1,0,0,0,.32.21,8.22,8.22,0,0,0,.84.15.83.83,0,0,0,.35,0,.78.78,0,0,1,.65,0s.06,0,.13,0a2,2,0,0,1-.13-.23c0-.06-.07-.15,0-.18a1.33,1.33,0,0,0,.16-.46c0-.06.08-.11.08-.17,0-.22,0-.45.06-.67a1.58,1.58,0,0,0-.22-1.17,4.16,4.16,0,0,0-.64-.76,1.23,1.23,0,0,0-.37-.26,3.76,3.76,0,0,0-1.05-.26,1.56,1.56,0,0,1-.68-.22h0a1.38,1.38,0,0,0-.3-.11.54.54,0,0,1,0,.22,4.39,4.39,0,0,1-.15.93,2.13,2.13,0,0,0-.11.5A4.9,4.9,0,0,0,33.69,41Z"></path><path class="cls-6" d="M34.87,36.09a1.1,1.1,0,0,0,.16.56,3.06,3.06,0,0,0,.21.29.41.41,0,0,0,.16.16,4.89,4.89,0,0,0,.46.19.49.49,0,0,0,.21,0,.44.44,0,0,1,.37.08l.07,0c0-.06,0-.1,0-.15s0-.09,0-.11a.82.82,0,0,0,.16-.25s.06-.05.07-.08a2.55,2.55,0,0,1,.13-.39,1,1,0,0,0,0-.71,2.3,2.3,0,0,0-.26-.52.81.81,0,0,0-.18-.19,2.07,2.07,0,0,0-.58-.28.86.86,0,0,1-.36-.21h0a.86.86,0,0,0-.16-.1.29.29,0,0,1,0,.13,2,2,0,0,1-.21.53,1,1,0,0,0-.13.28A2.45,2.45,0,0,0,34.87,36.09Z"></path><path class="cls-6" d="M30.88,47.89a2.17,2.17,0,0,0,.89.67c.22.08.44.16.66.22a.92.92,0,0,0,.43.06,7.21,7.21,0,0,0,.92-.21,1.11,1.11,0,0,0,.36-.18.83.83,0,0,1,.66-.29s.07,0,.15,0a1.35,1.35,0,0,1-.24-.18c-.06-.05-.14-.12-.13-.16a2,2,0,0,0,0-.55c0-.06,0-.14,0-.2a6.13,6.13,0,0,1-.25-.72,1.86,1.86,0,0,0-.78-1.09,5.08,5.08,0,0,0-1-.5,1.39,1.39,0,0,0-.5-.09,3.82,3.82,0,0,0-1.2.2,2,2,0,0,1-.8.08h0a1.45,1.45,0,0,0-.36,0,.55.55,0,0,1,.17.2,5.46,5.46,0,0,1,.28,1,2.66,2.66,0,0,0,.12.56A5.23,5.23,0,0,0,30.88,47.89Z"></path><path class="cls-4" d="M29.12,57.37a2.24,2.24,0,0,0,1.09.33c.23,0,.47,0,.7,0a1.16,1.16,0,0,0,.42-.08,8.52,8.52,0,0,0,.8-.53.8.8,0,0,0,.26-.29.79.79,0,0,1,.52-.49L33,56.2l-.29-.09c-.07,0-.18-.07-.18-.11a1.8,1.8,0,0,0-.25-.5c0-.06,0-.14-.07-.19-.16-.2-.36-.38-.51-.59A1.88,1.88,0,0,0,30.61,54a4.8,4.8,0,0,0-1.14-.11,1.25,1.25,0,0,0-.5.08,4,4,0,0,0-1.06.6,1.61,1.61,0,0,1-.72.35h0a1.64,1.64,0,0,0-.33.14.61.61,0,0,1,.22.13,5,5,0,0,1,.64.87,2.86,2.86,0,0,0,.32.48A5.43,5.43,0,0,0,29.12,57.37Z"></path><path class="cls-6" d="M25,60.68a2.29,2.29,0,0,0,1.08-.34c.19-.13.38-.26.56-.41a1.07,1.07,0,0,0,.3-.3,9.21,9.21,0,0,0,.34-.87.89.89,0,0,0,.05-.39.8.8,0,0,1,.13-.7.54.54,0,0,0,.06-.13c-.12,0-.21.07-.29.08s-.18.05-.21,0a1.74,1.74,0,0,0-.5-.27c-.06,0-.11-.11-.17-.12-.25-.08-.52-.11-.76-.21a2,2,0,0,0-1.38,0,5.1,5.1,0,0,0-1,.54,1.23,1.23,0,0,0-.37.35A3.7,3.7,0,0,0,22.32,59a1.75,1.75,0,0,1-.39.69h0a1.08,1.08,0,0,0-.19.3A.57.57,0,0,1,22,60a5,5,0,0,1,1,.35,2.53,2.53,0,0,0,.55.22A6,6,0,0,0,25,60.68Z"></path><path class="cls-7" d="M28.23,52.94a2.22,2.22,0,0,0,1.09.31c.23,0,.47,0,.7,0a1,1,0,0,0,.42-.09,7.25,7.25,0,0,0,.79-.53.83.83,0,0,0,.26-.3.82.82,0,0,1,.51-.5.51.51,0,0,0,.13-.08l-.29-.09c-.07,0-.18-.06-.18-.1a1.83,1.83,0,0,0-.26-.5c0-.06,0-.14-.07-.19-.16-.2-.37-.37-.51-.58a1.91,1.91,0,0,0-1.14-.75,4.79,4.79,0,0,0-1.14-.1,1.28,1.28,0,0,0-.51.09,3.84,3.84,0,0,0-1.05.61,1.69,1.69,0,0,1-.72.36h0a1.42,1.42,0,0,0-.33.14.61.61,0,0,1,.22.13,5,5,0,0,1,.66.86,2.36,2.36,0,0,0,.32.48A5.45,5.45,0,0,0,28.23,52.94Z"></path><path class="cls-6" d="M31.27,43.26a1.44,1.44,0,0,0,.49.49l.4.2a.61.61,0,0,0,.26.08A4,4,0,0,0,33,44a.68.68,0,0,0,.24-.08.51.51,0,0,1,.43-.12h.1l-.13-.14s-.08-.09-.07-.11a.83.83,0,0,0,0-.35.61.61,0,0,0,0-.13,3.55,3.55,0,0,1-.09-.47,1.13,1.13,0,0,0-.39-.75,2.6,2.6,0,0,0-.58-.4.82.82,0,0,0-.31-.11,2.42,2.42,0,0,0-.76,0,1.09,1.09,0,0,1-.51,0h0a.93.93,0,0,0-.23,0,.29.29,0,0,1,.08.14,2.93,2.93,0,0,1,.08.67,2.11,2.11,0,0,0,0,.36A3.66,3.66,0,0,0,31.27,43.26Z"></path><path class="cls-6" d="M30.45,39.65a1.47,1.47,0,0,0,.49.5l.4.2a.79.79,0,0,0,.26.08l.59,0a.46.46,0,0,0,.24-.09.54.54,0,0,1,.44-.11H33a1.56,1.56,0,0,1-.13-.13s-.08-.09-.07-.12a1,1,0,0,0,0-.34.79.79,0,0,0,0-.13,3.89,3.89,0,0,1-.09-.47,1.17,1.17,0,0,0-.39-.76,3.5,3.5,0,0,0-.58-.4.81.81,0,0,0-.31-.1,2.76,2.76,0,0,0-.76,0,1.09,1.09,0,0,1-.51,0h0a.93.93,0,0,0-.23,0,.29.29,0,0,1,.08.14,2.91,2.91,0,0,1,.08.66,1.43,1.43,0,0,0,0,.36A3.29,3.29,0,0,0,30.45,39.65Z"></path><path class="cls-6" d="M60,25.68a2,2,0,0,0-.18,1c0,.21.07.42.11.62a1.08,1.08,0,0,0,.13.37c.18.23.39.44.59.65a1,1,0,0,0,.31.2c.23.08.44.16.53.4,0,0,.05.05.09.11a2.71,2.71,0,0,1,0-.27c0-.07,0-.17.08-.18a1.65,1.65,0,0,0,.44-.28c.06,0,.14,0,.18-.08a6.27,6.27,0,0,1,.49-.53,1.72,1.72,0,0,0,.59-1.1,4.44,4.44,0,0,0,0-1,1.33,1.33,0,0,0-.14-.44,3.48,3.48,0,0,0-.7-.87,1.56,1.56,0,0,1-.42-.61h0a1,1,0,0,0-.18-.28.47.47,0,0,1-.09.22,5.27,5.27,0,0,1-.74.67,2.44,2.44,0,0,0-.42.35A4.81,4.81,0,0,0,60,25.68Z"></path><path class="cls-6" d="M56.86,22.51a1.36,1.36,0,0,0,0,.75c.06.15.11.3.18.44a.7.7,0,0,0,.15.25,6.3,6.3,0,0,0,.53.37.55.55,0,0,0,.25.1.59.59,0,0,1,.45.21s0,0,.08.07,0-.15,0-.21,0-.12,0-.14.18-.18.28-.26.09-.05.11-.09a4.12,4.12,0,0,1,.27-.45,1.27,1.27,0,0,0,.25-.89,3.28,3.28,0,0,0-.19-.73.75.75,0,0,0-.17-.3,2.52,2.52,0,0,0-.64-.52,1.22,1.22,0,0,1-.4-.38h0a1.45,1.45,0,0,0-.18-.17.32.32,0,0,1,0,.17,3.48,3.48,0,0,1-.43.6,2.42,2.42,0,0,0-.25.31A3.83,3.83,0,0,0,56.86,22.51Z"></path><path class="cls-6" d="M62.74,22.21a1.16,1.16,0,0,0,0,.64c0,.12.09.25.15.37a.57.57,0,0,0,.13.21,5.15,5.15,0,0,0,.45.32.54.54,0,0,0,.21.08.49.49,0,0,1,.38.18s0,0,.07,0a1,1,0,0,1,0-.17s0-.1,0-.12.16-.15.23-.22.08-.05.1-.08.14-.27.23-.38a1,1,0,0,0,.21-.75,2.75,2.75,0,0,0-.15-.63,1,1,0,0,0-.15-.26,2.31,2.31,0,0,0-.54-.44,1,1,0,0,1-.34-.32h0a.54.54,0,0,0-.15-.15.22.22,0,0,1,0,.14,2.49,2.49,0,0,1-.36.51,1.31,1.31,0,0,0-.21.27A2.8,2.8,0,0,0,62.74,22.21Z"></path><path class="cls-2" d="M69,95.75c-.39-.38-.7-.85-1.07-1.25s-.8-.81-1.22-1.2a31.13,31.13,0,0,1-2.58-2.68c-.4-.49-.9-.9-1.29-1.4h0a6.41,6.41,0,0,1-1.6-3c0-.09-.08-.17-.11-.26a11.25,11.25,0,0,1-.69-2.41A19.82,19.82,0,0,0,59.93,81a4,4,0,0,0-.26-.6A31.39,31.39,0,0,1,57,87.87a29.14,29.14,0,0,1-2.21,4.52,10.48,10.48,0,0,1,4.38.3h0c.73.19,1.45.44,2.17.69l1,.31a60.24,60.24,0,0,1,6,1.85c.21.1.43.2.65.28A.3.3,0,0,1,69,95.75Z"></path><path class="cls-8" d="M86.73,95.14c-.09-2.2-2.17-3-3.4-4-.2-.16-.4-.32-.59-.49a7.94,7.94,0,0,1-2-2.29,4.23,4.23,0,0,1-.37-.79c-.4-.07-1.23-.13-1.64-.17l-1.81-.21a29.83,29.83,0,0,0-5.23-.75,26.79,26.79,0,0,0-8,.64,1.43,1.43,0,0,0-.22.52c.26.41.57.8.86,1.18.89,1.14,1.9,2.18,2.78,3.33A24.31,24.31,0,0,1,70,95a6.24,6.24,0,0,1,.55,1.08,5,5,0,0,1,.37,1.07s-1.75-.4-2.39-.61a23.86,23.86,0,0,0-2.7-.81c-1.08-.37-4.55-1.24-5.24-1.45a9.5,9.5,0,0,0-2.53-.42c-1.57,0-3.17,0-4.74.06a37.45,37.45,0,0,0-5.28.61c-1.37.22-2.68.74-4,.9h0a6.94,6.94,0,0,1,0-.9A11,11,0,0,1,45,92q.34-.47.66-1l.25-.25a2.46,2.46,0,0,1,.52-.69,20.05,20.05,0,0,1,1.38-1.84,5.82,5.82,0,0,0,1-2.54c-1.7.07-2.9,1.68-6.48-.61-.09-.06-.43-.22-.52-.15-2.09,1.49-2.63,1.62-5.46,2A18.24,18.24,0,0,1,31,86.09c-1.21-.43-3,1.19-4.19,1.64,1.15,4.42,4.39,8.06,6.83,10.62a46.62,46.62,0,0,0,19.71,12.22,63.49,63.49,0,0,0,10.11,2.29l.79.11c2.09.75,5.21-.55,5.21-2.89-.26-2.08-2.34-2.6-3.39-4-.2-.21-.4-.42-.59-.64a5.44,5.44,0,0,1-1.27-2.16,3.49,3.49,0,0,1,0-.79,2.52,2.52,0,0,1,1.37-2c1.29-.78,2.85-.78,4.39-1.18l.73-.16a21.09,21.09,0,0,1,4-.6l.78-.07a27,27,0,0,1,8-.62l.65,0a2.61,2.61,0,0,0,2.6-2.14A4.6,4.6,0,0,0,86.73,95.14Z"></path><path class="cls-8" d="M112.12,84.13l0,0a1.91,1.91,0,0,0-1.07.28A22.76,22.76,0,0,0,108.59,86a18.86,18.86,0,0,1-6.8,2c-2.88,0-5.46-1.38-8-1.39-3.6,0-8.54,1.79-12.08,1.06.62.5,2.17,1.72,2.76,2.25s1.41,1.14,2,1.79l.36.4c.18.12.37.25.56.4s.37.3.56.47c1.78,1.29,2.3,3.37,1.15,4.82a4.09,4.09,0,0,1-.51.51c-2.19,1.47-4.7,1.73-7.11,2.2l-.66.08c-.88.1-1.76.18-2.63.32l-.73.12a24.54,24.54,0,0,1-3.69.36c-.28,0-.57.09-.85.15-1.4.33-2.6,1-2.12,2.66.5,2.34,3.52,2.6,5.53,2.72l.54.16a9.69,9.69,0,0,1,2.06.85,5.32,5.32,0,0,1,.59.44,2.93,2.93,0,0,1,1.13,3.13l-.13.5c0,.09-.06.19.15.28a61.56,61.56,0,0,0,17.86-9,43.23,43.23,0,0,0,9.65-9.77,30.32,30.32,0,0,0,3.26-6,8.64,8.64,0,0,0,.75-2.62A1.47,1.47,0,0,0,112.12,84.13Z"></path><path class="cls-9" d="M149.51,58.67l-1.46-4.07h-5.6L141,58.67h-2.53L144,44h2.61l5.48,14.71Zm-2.09-6.14-1.37-4c-.1-.27-.24-.69-.42-1.27s-.3-1-.36-1.26a24.44,24.44,0,0,1-.8,2.7l-1.32,3.81Z"></path><path class="cls-9" d="M162.44,54.69A3.66,3.66,0,0,1,161,57.75a6.14,6.14,0,0,1-3.89,1.12,9.2,9.2,0,0,1-4.07-.78V55.83a11.4,11.4,0,0,0,2.13.74,9,9,0,0,0,2.1.27,3.34,3.34,0,0,0,2.1-.54,1.75,1.75,0,0,0,.67-1.45,1.79,1.79,0,0,0-.62-1.39,9,9,0,0,0-2.56-1.36,6.83,6.83,0,0,1-2.83-1.85,3.92,3.92,0,0,1-.82-2.51,3.49,3.49,0,0,1,1.3-2.88,5.43,5.43,0,0,1,3.5-1,10.2,10.2,0,0,1,4.19.92l-.76,2a9.16,9.16,0,0,0-3.49-.82,2.64,2.64,0,0,0-1.76.51,1.62,1.62,0,0,0-.61,1.33,1.9,1.9,0,0,0,.24,1,2.47,2.47,0,0,0,.8.77,12.4,12.4,0,0,0,2,.95A10.67,10.67,0,0,1,161,51.65,3.76,3.76,0,0,1,162.09,53,4,4,0,0,1,162.44,54.69Z"></path><path class="cls-9" d="M176.82,58.67h-2.4V52.06h-6.75v6.61h-2.4V44h2.4v6h6.75V44h2.4Z"></path><path class="cls-9" d="M193.69,51.32a8,8,0,0,1-1.79,5.56,7.51,7.51,0,0,1-10.16,0A8.06,8.06,0,0,1,180,51.3a8,8,0,0,1,1.79-5.57,6.6,6.6,0,0,1,5.1-1.94,6.44,6.44,0,0,1,5.05,2A8,8,0,0,1,193.69,51.32Zm-11.19,0a6.55,6.55,0,0,0,1.1,4.1,4.44,4.44,0,0,0,6.45,0,6.56,6.56,0,0,0,1.09-4.12,6.58,6.58,0,0,0-1.08-4.09,3.81,3.81,0,0,0-3.21-1.39,3.91,3.91,0,0,0-3.25,1.39A6.52,6.52,0,0,0,182.5,51.32Z"></path><path class="cls-9" d="M208,58.67h-2.77L200.64,52l-1.41,1.15v5.49h-2.4V44h2.4v7q1-1.2,2-2.31l4-4.68h2.72q-3.84,4.5-5.5,6.42Z"></path><path class="cls-9" d="M219,58.67l-1.46-4.07H212l-1.43,4.07H208L213.49,44h2.61l5.48,14.71Zm-2.09-6.14-1.37-4c-.1-.27-.24-.69-.42-1.27s-.3-1-.36-1.26a22.45,22.45,0,0,1-.8,2.7l-1.32,3.81Z"></path><path class="cls-9" d="M233.9,58.67h-2.39V46.07H227.2V44h11v2H233.9Z"></path><path class="cls-9" d="M242.85,52.81v5.86h-2.4V44h4.14a6.8,6.8,0,0,1,4.2,1.06,3.82,3.82,0,0,1,1.36,3.21,4,4,0,0,1-2.84,3.89l4.13,6.49h-2.72l-3.51-5.86Zm0-2h1.66a3.83,3.83,0,0,0,2.43-.62,2.26,2.26,0,0,0,.75-1.84,2,2,0,0,0-.81-1.79,4.47,4.47,0,0,0-2.45-.54h-1.58Z"></path><path class="cls-9" d="M265.05,44V53.5a5.59,5.59,0,0,1-.7,2.84,4.61,4.61,0,0,1-2,1.87,7,7,0,0,1-3.15.66A5.91,5.91,0,0,1,255,57.42a5.2,5.2,0,0,1-1.51-4V44h2.4v9.27a3.7,3.7,0,0,0,.84,2.67,3.52,3.52,0,0,0,2.59.86c2.26,0,3.39-1.18,3.39-3.56V44Z"></path><path class="cls-9" d="M277.24,54.69a3.68,3.68,0,0,1-1.41,3.06,6.16,6.16,0,0,1-3.9,1.12,9.18,9.18,0,0,1-4.06-.78V55.83a11.05,11.05,0,0,0,2.12.74,9.16,9.16,0,0,0,2.1.27,3.34,3.34,0,0,0,2.1-.54,1.76,1.76,0,0,0,.68-1.45,1.82,1.82,0,0,0-.62-1.39,9.12,9.12,0,0,0-2.57-1.36,6.85,6.85,0,0,1-2.82-1.85,3.92,3.92,0,0,1-.82-2.51,3.49,3.49,0,0,1,1.3-2.88,5.4,5.4,0,0,1,3.49-1,10.17,10.17,0,0,1,4.19.92l-.76,2a9.07,9.07,0,0,0-3.49-.82,2.66,2.66,0,0,0-1.76.51,1.64,1.64,0,0,0-.6,1.33,1.9,1.9,0,0,0,.24,1,2.53,2.53,0,0,0,.79.77,13.1,13.1,0,0,0,2,.95,10.91,10.91,0,0,1,2.36,1.25,3.73,3.73,0,0,1,1.1,1.31A3.9,3.9,0,0,1,277.24,54.69Z"></path><path class="cls-9" d="M285.14,58.67h-2.4V46.07h-4.3V44h11v2h-4.31Z"></path><path class="cls-9" d="M299.39,58.67H297V44h8.27v2h-5.9v4.58h5.53v2h-5.53Z"></path><path class="cls-9" d="M321,51.32a8,8,0,0,1-1.79,5.56,7.51,7.51,0,0,1-10.16,0,8.06,8.06,0,0,1-1.78-5.6A8,8,0,0,1,309,45.73a6.6,6.6,0,0,1,5.1-1.94,6.44,6.44,0,0,1,5.05,2A8,8,0,0,1,321,51.32Zm-11.19,0a6.55,6.55,0,0,0,1.1,4.1,4.44,4.44,0,0,0,6.45,0,6.56,6.56,0,0,0,1.09-4.12,6.58,6.58,0,0,0-1.08-4.09,3.81,3.81,0,0,0-3.21-1.39,3.91,3.91,0,0,0-3.25,1.39A6.52,6.52,0,0,0,309.76,51.32Z"></path><path class="cls-9" d="M326.49,52.81v5.86h-2.4V44h4.14a6.8,6.8,0,0,1,4.2,1.06,3.82,3.82,0,0,1,1.36,3.21,4,4,0,0,1-2.85,3.89l4.14,6.49h-2.72l-3.51-5.86Zm0-2h1.66a3.82,3.82,0,0,0,2.42-.62,2.27,2.27,0,0,0,.76-1.84,2,2,0,0,0-.82-1.79,4.43,4.43,0,0,0-2.44-.54h-1.58Z"></path><path class="cls-9" d="M344.93,52.81v5.86h-2.39V44h4.13a6.8,6.8,0,0,1,4.2,1.06,3.82,3.82,0,0,1,1.36,3.21,4,4,0,0,1-2.84,3.89l4.14,6.49H350.8l-3.51-5.86Zm0-2h1.66a3.83,3.83,0,0,0,2.43-.62,2.26,2.26,0,0,0,.75-1.84,2,2,0,0,0-.81-1.79,4.47,4.47,0,0,0-2.45-.54h-1.58Z"></path><path class="cls-9" d="M363.94,58.67h-8.29V44h8.29v2H358v4h5.53v2H358v4.6h5.9Z"></path><path class="cls-9" d="M375.55,54.69a3.68,3.68,0,0,1-1.41,3.06,6.19,6.19,0,0,1-3.9,1.12,9.23,9.23,0,0,1-4.07-.78V55.83a11.4,11.4,0,0,0,2.13.74,9,9,0,0,0,2.1.27,3.34,3.34,0,0,0,2.1-.54,1.75,1.75,0,0,0,.67-1.45,1.79,1.79,0,0,0-.62-1.39A9,9,0,0,0,370,52.1a6.83,6.83,0,0,1-2.83-1.85,3.92,3.92,0,0,1-.82-2.51,3.49,3.49,0,0,1,1.3-2.88,5.43,5.43,0,0,1,3.5-1,10.2,10.2,0,0,1,4.19.92l-.76,2a9.16,9.16,0,0,0-3.49-.82,2.64,2.64,0,0,0-1.76.51,1.64,1.64,0,0,0-.6,1.33,1.9,1.9,0,0,0,.24,1,2.43,2.43,0,0,0,.79.77,12.87,12.87,0,0,0,2,.95,11,11,0,0,1,2.37,1.25A3.84,3.84,0,0,1,375.2,53,4,4,0,0,1,375.55,54.69Z"></path><path class="cls-9" d="M386.67,58.67h-8.29V44h8.29v2h-5.89v4h5.52v2h-5.52v4.6h5.89Z"></path><path class="cls-9" d="M398.92,58.67l-1.46-4.07h-5.6l-1.43,4.07H387.9L393.38,44H396l5.48,14.71Zm-2.09-6.14-1.37-4c-.1-.27-.24-.69-.42-1.27s-.3-1-.37-1.26a22.27,22.27,0,0,1-.79,2.7l-1.32,3.81Z"></path><path class="cls-9" d="M405.79,52.81v5.86H403.4V44h4.14a6.8,6.8,0,0,1,4.2,1.06,3.84,3.84,0,0,1,1.36,3.21,4,4,0,0,1-2.85,3.89l4.14,6.49h-2.72l-3.51-5.86Zm0-2h1.67a3.82,3.82,0,0,0,2.42-.62,2.26,2.26,0,0,0,.75-1.84,2,2,0,0,0-.81-1.79,4.43,4.43,0,0,0-2.44-.54h-1.59Z"></path><path class="cls-9" d="M422.75,45.86a4,4,0,0,0-3.25,1.46,6.27,6.27,0,0,0-1.18,4,6.28,6.28,0,0,0,1.14,4.08,4,4,0,0,0,3.29,1.38,8.86,8.86,0,0,0,1.8-.18c.58-.13,1.19-.29,1.81-.48v2.05a10.85,10.85,0,0,1-3.9.66,6.24,6.24,0,0,1-4.94-1.95,8.16,8.16,0,0,1-1.73-5.58,9,9,0,0,1,.84-4,6,6,0,0,1,2.42-2.62,7.27,7.27,0,0,1,3.72-.91,9.15,9.15,0,0,1,4.14.94l-.86,2a12,12,0,0,0-1.56-.61A5.65,5.65,0,0,0,422.75,45.86Z"></path><path class="cls-9" d="M441.07,58.67h-2.4V52.06h-6.76v6.61h-2.39V44h2.39v6h6.76V44h2.4Z"></path><path class="cls-9" d="M450.26,58.67V44h2.39V58.67Z"></path><path class="cls-9" d="M468.72,58.67h-2.93L458.58,47h-.08l.05.65c.1,1.25.14,2.38.14,3.41v7.62h-2.17V44h2.91l7.18,11.61h.06c0-.15,0-.71-.08-1.68s-.06-1.72-.06-2.26V44h2.19Z"></path><path class="cls-9" d="M148.71,85.67h-8.28V71h8.28v2h-5.89v4h5.52v2h-5.52v4.6h5.89Z"></path><path class="cls-9" d="M158.11,72.86a4,4,0,0,0-3.25,1.46,6.27,6.27,0,0,0-1.18,4,6.28,6.28,0,0,0,1.14,4.08,4,4,0,0,0,3.29,1.38,8.86,8.86,0,0,0,1.8-.18c.58-.13,1.19-.29,1.82-.48v2a10.91,10.91,0,0,1-3.91.66,6.24,6.24,0,0,1-4.94-2,8.16,8.16,0,0,1-1.72-5.58,9,9,0,0,1,.83-4,6,6,0,0,1,2.42-2.62,7.33,7.33,0,0,1,3.72-.91,9.2,9.2,0,0,1,4.15.94l-.86,2a12.79,12.79,0,0,0-1.57-.61A5.56,5.56,0,0,0,158.11,72.86Z"></path><path class="cls-9" d="M177.89,78.32a8,8,0,0,1-1.79,5.56,7.51,7.51,0,0,1-10.16,0,8.06,8.06,0,0,1-1.78-5.6A8,8,0,0,1,166,72.73a6.6,6.6,0,0,1,5.1-1.94,6.44,6.44,0,0,1,5,2A8,8,0,0,1,177.89,78.32Zm-11.18,0a6.55,6.55,0,0,0,1.09,4.1,4.44,4.44,0,0,0,6.45,0,6.56,6.56,0,0,0,1.09-4.12,6.58,6.58,0,0,0-1.08-4.09,3.81,3.81,0,0,0-3.21-1.39,3.91,3.91,0,0,0-3.25,1.39A6.52,6.52,0,0,0,166.71,78.32Z"></path><path class="cls-9" d="M181,85.67V71h2.4V83.61h6.2v2.06Z"></path><path class="cls-9" d="M205.16,78.32a8,8,0,0,1-1.79,5.56,7.51,7.51,0,0,1-10.16,0,8.06,8.06,0,0,1-1.78-5.6,8,8,0,0,1,1.79-5.57,6.6,6.6,0,0,1,5.1-1.94,6.44,6.44,0,0,1,5.05,2A8,8,0,0,1,205.16,78.32Zm-11.18,0a6.55,6.55,0,0,0,1.09,4.1,3.82,3.82,0,0,0,3.23,1.4,3.87,3.87,0,0,0,3.23-1.38,6.62,6.62,0,0,0,1.08-4.12,6.65,6.65,0,0,0-1.07-4.09,3.84,3.84,0,0,0-3.22-1.39,3.91,3.91,0,0,0-3.25,1.39A6.52,6.52,0,0,0,194,78.32Z"></path><path class="cls-9" d="M214.29,77.72h5.39v7.35a16.15,16.15,0,0,1-2.54.62,17.88,17.88,0,0,1-2.62.18,6.61,6.61,0,0,1-5.13-2,7.92,7.92,0,0,1-1.81-5.56,7.37,7.37,0,0,1,2-5.53,7.6,7.6,0,0,1,5.6-2,10.79,10.79,0,0,1,4.34.88l-.84,2a8.43,8.43,0,0,0-3.56-.82,4.81,4.81,0,0,0-3.71,1.47,5.72,5.72,0,0,0-1.36,4,6,6,0,0,0,1.22,4.08,4.44,4.44,0,0,0,3.54,1.4,11.83,11.83,0,0,0,2.48-.29V79.77h-3Z"></path><path class="cls-9" d="M227.34,77.7,230.81,71h2.6l-4.88,9v5.69h-2.4V80.06l-4.86-9h2.6Z"></path><path class="cls-9" d="M239.7,81.79a4.12,4.12,0,0,1,.64-2.29,6.74,6.74,0,0,1,2.32-1.94,8.31,8.31,0,0,1-1.3-1.88,3.82,3.82,0,0,1-.34-1.59,2.94,2.94,0,0,1,1.08-2.4,4.5,4.5,0,0,1,2.92-.88,4.21,4.21,0,0,1,2.79.85,2.88,2.88,0,0,1,1,2.31,3.48,3.48,0,0,1-.68,2.08,7.33,7.33,0,0,1-2.26,1.86l3.47,3.35a9.16,9.16,0,0,0,1.35-3.15h2.43a11.07,11.07,0,0,1-2.25,4.64l3,2.92h-3l-1.49-1.46a7.56,7.56,0,0,1-2.18,1.24,7.43,7.43,0,0,1-2.56.42,5.46,5.46,0,0,1-3.61-1.1A3.65,3.65,0,0,1,239.7,81.79Zm5.05,2a4.82,4.82,0,0,0,3.14-1.07L244.05,79a4.94,4.94,0,0,0-1.46,1.28,2.36,2.36,0,0,0-.4,1.36,2.07,2.07,0,0,0,.69,1.6A2.74,2.74,0,0,0,244.75,83.84Zm-1.49-9.67a2.36,2.36,0,0,0,.33,1.2,7.47,7.47,0,0,0,.94,1.19,5.68,5.68,0,0,0,1.59-1.2,2,2,0,0,0,.46-1.25,1.34,1.34,0,0,0-.44-1,1.68,1.68,0,0,0-1.16-.39,1.83,1.83,0,0,0-1.25.41A1.33,1.33,0,0,0,243.26,74.17Z"></path><path class="cls-9" d="M266.25,85.67h-2.39V73.07h-4.31V71h11v2h-4.31Z"></path><path class="cls-9" d="M284.36,85.67H282V79.06H275.2v6.61h-2.4V71h2.4v6H282V71h2.41Z"></path><path class="cls-9" d="M296.5,85.67h-8.29V71h8.29v2h-5.89v4h5.52v2h-5.52v4.6h5.89Z"></path><path class="cls-9" d="M313.28,85.67H305V71h8.28v2h-5.89v4h5.52v2h-5.52v4.6h5.89Z"></path><path class="cls-9" d="M328.65,85.67h-2.94L318.51,74h-.08l.05.65c.09,1.25.14,2.38.14,3.41v7.62h-2.17V71h2.9l7.19,11.61h.06c0-.15,0-.71-.08-1.68s-.06-1.72-.06-2.26V71h2.19Z"></path><path class="cls-9" d="M340.86,71h2.49l-5.13,14.65h-2.53L330.58,71h2.47l3.05,9.1q.24.66.51,1.68c.19.69.3,1.2.36,1.53a17.41,17.41,0,0,1,.4-1.76c.18-.67.32-1.16.44-1.49Z"></path><path class="cls-9" d="M345.28,85.67V71h2.4V85.67Z"></path><path class="cls-9" d="M353.94,79.81v5.86h-2.4V71h4.14a6.8,6.8,0,0,1,4.2,1.06,3.82,3.82,0,0,1,1.36,3.21,4,4,0,0,1-2.84,3.89l4.13,6.49h-2.72l-3.51-5.86Zm0-2h1.66a3.85,3.85,0,0,0,2.43-.62,2.26,2.26,0,0,0,.75-1.84,2,2,0,0,0-.81-1.79,4.49,4.49,0,0,0-2.45-.54h-1.58Z"></path><path class="cls-9" d="M377.66,78.32a8,8,0,0,1-1.79,5.56,6.47,6.47,0,0,1-5.06,2,6.54,6.54,0,0,1-5.1-2,8.11,8.11,0,0,1-1.77-5.6,8,8,0,0,1,1.78-5.57,6.63,6.63,0,0,1,5.11-1.94,6.44,6.44,0,0,1,5.05,2A8,8,0,0,1,377.66,78.32Zm-11.18,0a6.61,6.61,0,0,0,1.09,4.1,4.45,4.45,0,0,0,6.46,0,6.62,6.62,0,0,0,1.09-4.12A6.58,6.58,0,0,0,374,74.23a3.83,3.83,0,0,0-3.21-1.39,3.9,3.9,0,0,0-3.25,1.39A6.52,6.52,0,0,0,366.48,78.32Z"></path><path class="cls-9" d="M393,85.67h-2.93L382.87,74h-.08l0,.65c.1,1.25.14,2.38.14,3.41v7.62h-2.17V71h2.9l7.19,11.61H391c0-.15,0-.71-.08-1.68s-.06-1.72-.06-2.26V71H393Z"></path><path class="cls-9" d="M403.21,85.67,399,73.43h-.08c.12,1.82.17,3.52.17,5.11v7.13h-2.17V71h3.37l4.07,11.65h.06L408.57,71H412V85.67h-2.31V78.42c0-.73,0-1.67.06-2.84s.07-1.88.09-2.13h-.08l-4.4,12.22Z"></path><path class="cls-9" d="M424.1,85.67h-8.29V71h8.29v2h-5.89v4h5.52v2h-5.52v4.6h5.89Z"></path><path class="cls-9" d="M439.47,85.67h-2.94L429.33,74h-.08l.05.65c.09,1.25.14,2.38.14,3.41v7.62h-2.17V71h2.9l7.18,11.61h.06c0-.15,0-.71-.08-1.68s-.06-1.72-.06-2.26V71h2.2Z"></path><path class="cls-9" d="M448.39,85.67H446V73.07h-4.31V71h11v2h-4.31Z"></path></svg>